400-italicVF.ufo
<glyph name="exclam" format="2">
  <advance width="282"/>
  <unicode hex="0021"/>
  <outline>
    <contour>
      <point x="276" y="700" type="line"/>
      <point x="376" y="700" type="line"/>
      <point x="187" y="201" type="line"/>
      <point x="127" y="201" type="line"/>
    </contour>
    <contour>
      <point x="46" y="40" type="curve" smooth="yes"/>
      <point x="46" y="70"/>
      <point x="71" y="95"/>
      <point x="101" y="95" type="curve" smooth="yes"/>
      <point x="131" y="95"/>
      <point x="156" y="70"/>
      <point x="156" y="40" type="curve" smooth="yes"/>
      <point x="156" y="10"/>
      <point x="131" y="-15"/>
      <point x="101" y="-15" type="curve" smooth="yes"/>
      <point x="71" y="-15"/>
      <point x="46" y="10"/>
    </contour>
  </outline>
</glyph>
<glyph name="parenleft" format="2">
  <advance width="291"/>
  <unicode hex="0028"/>
  <outline>
    <contour>
      <point x="396" y="778" type="curve"/>
      <point x="470" y="778" type="line"/>
      <point x="363" y="629"/>
      <point x="281" y="465"/>
      <point x="226" y="290" type="curve" smooth="yes"/>
      <point x="177" y="131"/>
      <point x="149" y="-35"/>
      <point x="169" y="-201" type="curve"/>
      <point x="99" y="-201" type="line"/>
      <point x="71" y="-36"/>
      <point x="90" y="131"/>
      <point x="138" y="290" type="curve" smooth="yes"/>
      <point x="192" y="468"/>
      <point x="279" y="634"/>
    </contour>
  </outline>
</glyph>
<glyph name="asterisk" format="2">
  <advance width="557"/>
  <unicode hex="002A"/>
  <outline>
    <contour>
      <point x="593" y="598" type="line"/>
      <point x="591" y="531" type="line"/>
      <point x="397" y="482" type="line"/>
      <point x="397" y="531" type="line"/>
    </contour>
    <contour>
      <point x="485" y="365" type="line"/>
      <point x="419" y="327" type="line"/>
      <point x="372" y="492" type="line"/>
      <point x="417" y="520" type="line"/>
    </contour>
    <contour>
      <point x="258" y="329" type="line"/>
      <point x="213" y="372" type="line"/>
      <point x="380" y="518" type="line"/>
      <point x="412" y="486" type="line"/>
    </contour>
    <contour>
      <point x="220" y="534" type="line"/>
      <point x="261" y="597" type="line"/>
      <point x="414" y="528" type="line"/>
      <point x="384" y="483" type="line"/>
    </contour>
    <contour>
      <point x="430" y="699" type="line"/>
      <point x="498" y="699" type="line"/>
      <point x="421" y="506" type="line"/>
      <point x="372" y="506" type="line"/>
    </contour>
  </outline>
</glyph>
<glyph name="plus" format="2">
  <advance width="578"/>
  <unicode hex="002B"/>
  <outline>
    <contour>
      <point x="81" y="216" type="line"/>
      <point x="107" y="295" type="line"/>
      <point x="567" y="295" type="line"/>
      <point x="540" y="215" type="line"/>
    </contour>
    <contour>
      <point x="363" y="499" type="line"/>
      <point x="449" y="500" type="line"/>
      <point x="278" y="10" type="line"/>
      <point x="199" y="11" type="line"/>
    </contour>
  </outline>
</glyph>
<glyph name="one" format="2">
  <advance width="423"/>
  <unicode hex="0031"/>
  <outline>
    <contour>
      <point x="209" y="561" type="line"/>
      <point x="242" y="652" type="line"/>
      <point x="492" y="711" type="line"/>
      <point x="247" y="0" type="line"/>
      <point x="164" y="0" type="line"/>
      <point x="372" y="605" type="line"/>
    </contour>
  </outline>
</glyph>
<glyph name="six" format="2">
  <advance width="541"/>
  <unicode hex="0036"/>
  <outline>
    <contour>
      <point x="160" y="230" type="curve" smooth="yes"/>
      <point x="135" y="156"/>
      <point x="163" y="69"/>
      <point x="252" y="68" type="curve" smooth="yes"/>
      <point x="344" y="67"/>
      <point x="427" y="147"/>
      <point x="455" y="230" type="curve" smooth="yes"/>
      <point x="480" y="304"/>
      <point x="454" y="393"/>
      <point x="364" y="394" type="curve" smooth="yes"/>
      <point x="272" y="395"/>
      <point x="188" y="313"/>
    </contour>
    <contour>
      <point x="488" y="699" type="line"/>
      <point x="598" y="699" type="line"/>
      <point x="300" y="412" type="line"/>
      <point x="292" y="420" type="line"/>
      <point x="326" y="441"/>
      <point x="361" y="457"/>
      <point x="402" y="456" type="curve" smooth="yes"/>
      <point x="523" y="453"/>
      <point x="562" y="331"/>
      <point x="533" y="230" type="curve" smooth="yes"/>
      <point x="497" y="103"/>
      <point x="375" y="-9"/>
      <point x="239" y="-9" type="curve" smooth="yes"/>
      <point x="105" y="-9"/>
      <point x="48" y="112"/>
      <point x="82" y="230" type="curve" smooth="yes"/>
      <point x="97" y="284"/>
      <point x="128" y="334"/>
      <point x="166" y="375" type="curve" smooth="yes"/>
    </contour>
  </outline>
</glyph>
<glyph name="F" format="2">
  <advance width="470"/>
  <unicode hex="0046"/>
  <outline>
    <contour>
      <point x="278" y="620" type="line"/>
      <point x="304" y="700" type="line"/>
      <point x="602" y="700" type="line"/>
      <point x="575" y="620" type="line"/>
    </contour>
    <contour>
      <point x="182" y="341" type="line"/>
      <point x="209" y="420" type="line"/>
      <point x="497" y="420" type="line"/>
      <point x="470" y="340" type="line"/>
    </contour>
    <contour>
      <point x="257" y="700" type="line"/>
      <point x="343" y="700" type="line"/>
      <point x="101" y="0" type="line"/>
      <point x="22" y="0" type="line"/>
    </contour>
  </outline>
</glyph>
<glyph name="L" format="2">
  <advance width="423"/>
  <unicode hex="004C"/>
  <outline>
    <contour>
      <point x="259" y="700" type="line"/>
      <point x="343" y="700" type="line"/>
      <point x="130" y="80" type="line"/>
      <point x="389" y="80" type="line"/>
      <point x="361" y="0" type="line"/>
      <point x="19" y="0" type="line"/>
    </contour>
  </outline>
</glyph>
<glyph name="U" format="2">
  <advance width="589"/>
  <unicode hex="0055"/>
  <outline>
    <contour>
      <point x="255" y="700" type="line"/>
      <point x="338" y="700" type="line"/>
      <point x="175" y="230" type="line" smooth="yes"/>
      <point x="152" y="155"/>
      <point x="164.979" y="71"/>
      <point x="259" y="71" type="curve" smooth="yes"/>
      <point x="375" y="71"/>
      <point x="431.925" y="145.647"/>
      <point x="461" y="230" type="curve" smooth="yes"/>
      <point x="623" y="700" type="line"/>
      <point x="706" y="700" type="line"/>
      <point x="545" y="230" type="line" smooth="yes"/>
      <point x="501.54" y="103.13"/>
      <point x="417" y="-9"/>
      <point x="245" y="-9" type="curve" smooth="yes"/>
      <point x="108" y="-9"/>
      <point x="54" y="113"/>
      <point x="94" y="230" type="curve" smooth="yes"/>
    </contour>
  </outline>
</glyph>
<glyph name="a" format="2">
  <advance width="456"/>
  <unicode hex="0061"/>
  <outline>
    <contour>
      <point x="96" y="135" type="curve" smooth="yes"/>
      <point x="82" y="89"/>
      <point x="115" y="64"/>
      <point x="157" y="62" type="curve" smooth="yes"/>
      <point x="238" y="58"/>
      <point x="294" y="114"/>
      <point x="332" y="179" type="curve"/>
      <point x="331" y="128" type="line"/>
      <point x="290" y="48"/>
      <point x="219" y="-10"/>
      <point x="125" y="-9" type="curve" smooth="yes"/>
      <point x="43" y="-8"/>
      <point x="-7" y="53"/>
      <point x="17" y="133" type="curve" smooth="yes"/>
      <point x="47" y="231"/>
      <point x="153" y="286"/>
      <point x="251" y="285" type="curve" smooth="yes"/>
      <point x="305" y="284"/>
      <point x="346" y="265"/>
      <point x="380" y="224" type="curve"/>
      <point x="365" y="179" type="line"/>
      <point x="329" y="208"/>
      <point x="291" y="225"/>
      <point x="244" y="224" type="curve" smooth="yes"/>
      <point x="186" y="223"/>
      <point x="114" y="196"/>
    </contour>
    <contour>
      <point x="173" y="352" type="curve"/>
      <point x="154" y="416" type="line"/>
      <point x="210" y="446"/>
      <point x="270" y="470"/>
      <point x="334" y="469" type="curve" smooth="yes"/>
      <point x="418" y="468"/>
      <point x="489" y="417"/>
      <point x="459" y="330" type="curve" smooth="yes"/>
      <point x="346" y="0" type="line"/>
      <point x="267" y="0" type="line"/>
      <point x="384" y="330" type="line" smooth="yes"/>
      <point x="399" y="371"/>
      <point x="367" y="396"/>
      <point x="320" y="398" type="curve" smooth="yes"/>
      <point x="268" y="400"/>
      <point x="218" y="375"/>
    </contour>
  </outline>
</glyph>
<glyph name="d" format="2">
  <advance width="536"/>
  <unicode hex="0064"/>
  <outline>
    <contour>
      <point x="604" y="779" type="line"/>
      <point x="686" y="780" type="line"/>
      <point x="416" y="0" type="line"/>
      <point x="341" y="0" type="line"/>
    </contour>
    <contour>
      <point x="55" y="230" type="curve" smooth="yes"/>
      <point x="94" y="352"/>
      <point x="213" y="472"/>
      <point x="348" y="470" type="curve" smooth="yes"/>
      <point x="480" y="468"/>
      <point x="487" y="328"/>
      <point x="455" y="230" type="curve" smooth="yes"/>
      <point x="419" y="117"/>
      <point x="326" y="-8"/>
      <point x="196" y="-9" type="curve" smooth="yes"/>
      <point x="62" y="-10"/>
      <point x="19" y="119"/>
    </contour>
    <contour>
      <point x="134" y="230" type="curve" smooth="yes"/>
      <point x="107" y="157"/>
      <point x="127" y="66"/>
      <point x="219" y="66" type="curve" smooth="yes"/>
      <point x="309" y="66"/>
      <point x="390" y="151"/>
      <point x="419" y="230" type="curve" smooth="yes"/>
      <point x="443" y="298"/>
      <point x="430" y="390"/>
      <point x="343" y="394" type="curve" smooth="yes"/>
      <point x="249" y="398"/>
      <point x="164" y="312"/>
    </contour>
  </outline>
</glyph>
<glyph name="e" format="2">
  <advance width="484"/>
  <unicode hex="0065"/>
  <outline>
    <contour>
      <point x="223" y="-10" type="curve" smooth="yes"/>
      <point x="124" y="-10"/>
      <point x="58" y="48"/>
      <point x="58" y="170" type="curve" smooth="yes"/>
      <point x="58" y="313"/>
      <point x="187" y="470"/>
      <point x="343" y="470" type="curve" smooth="yes"/>
      <point x="438" y="470"/>
      <point x="500" y="420"/>
      <point x="500" y="304" type="curve" smooth="yes"/>
      <point x="500" y="274"/>
      <point x="489" y="230"/>
      <point x="479" y="210" type="curve"/>
      <point x="106" y="210" type="line"/>
      <point x="106" y="278" type="line"/>
      <point x="436" y="278" type="line"/>
      <point x="406" y="232" type="line"/>
      <point x="414" y="257"/>
      <point x="423" y="276"/>
      <point x="423" y="305" type="curve" smooth="yes"/>
      <point x="423" y="366"/>
      <point x="401" y="400"/>
      <point x="333" y="400" type="curve" smooth="yes"/>
      <point x="221" y="400"/>
      <point x="136" y="280.005"/>
      <point x="136" y="175" type="curve" smooth="yes"/>
      <point x="136" y="117"/>
      <point x="159" y="65"/>
      <point x="233" y="65" type="curve" smooth="yes"/>
      <point x="295" y="65"/>
      <point x="353" y="107"/>
      <point x="387" y="148" type="curve"/>
      <point x="447" y="107" type="line"/>
      <point x="399" y="49"/>
      <point x="321" y="-10"/>
    </contour>
  </outline>
</glyph>
<glyph name="j" format="2">
  <advance width="235"/>
  <unicode hex="006A"/>
  <outline>
    <contour>
      <point x="226" y="650" type="curve" smooth="yes"/>
      <point x="226" y="680"/>
      <point x="250" y="704"/>
      <point x="280" y="704" type="curve" smooth="yes"/>
      <point x="310" y="704"/>
      <point x="334" y="680"/>
      <point x="334" y="650" type="curve" smooth="yes"/>
      <point x="334" y="620"/>
      <point x="310" y="596"/>
      <point x="280" y="596" type="curve" smooth="yes"/>
      <point x="250" y="596"/>
      <point x="226" y="620"/>
    </contour>
    <contour>
      <point x="-113" y="-115" type="line"/>
      <point x="-105" y="-128"/>
      <point x="-89" y="-140"/>
      <point x="-77" y="-141" type="curve" smooth="yes"/>
      <point x="-35" y="-145"/>
      <point x="-9" y="-80"/>
      <point x="2" y="-50" type="curve" smooth="yes"/>
      <point x="177" y="460" type="line"/>
      <point x="256" y="460" type="line"/>
      <point x="79" y="-61" type="line" smooth="yes"/>
      <point x="51" y="-137"/>
      <point x="4" y="-223"/>
      <point x="-88" y="-219" type="curve" smooth="yes"/>
      <point x="-122" y="-218"/>
      <point x="-152" y="-201"/>
      <point x="-174" y="-177" type="curve"/>
    </contour>
  </outline>
</glyph>
<glyph name="m" format="2">
  <advance width="733"/>
  <unicode hex="006D"/>
  <outline>
    <contour>
      <point x="709" y="290" type="curve" smooth="yes"/>
      <point x="610" y="0" type="line"/>
      <point x="531" y="0" type="line"/>
      <point x="630" y="280" type="line" smooth="yes"/>
      <point x="645.81" y="324.714"/>
      <point x="657" y="393"/>
      <point x="591" y="393" type="curve" smooth="yes"/>
      <point x="521.884" y="393"/>
      <point x="466.839" y="337.402"/>
      <point x="448" y="283" type="curve" smooth="yes"/>
      <point x="350" y="0" type="line"/>
      <point x="275" y="0" type="line"/>
      <point x="371" y="280" type="line" smooth="yes"/>
      <point x="385" y="325"/>
      <point x="399" y="393"/>
      <point x="333" y="393" type="curve" smooth="yes"/>
      <point x="266.879" y="393"/>
      <point x="211.753" y="346.086"/>
      <point x="192" y="289" type="curve" smooth="yes"/>
      <point x="92" y="0" type="line"/>
      <point x="13" y="0" type="line"/>
      <point x="173" y="460" type="line"/>
      <point x="251" y="460" type="line"/>
      <point x="230" y="398" type="line"/>
      <point x="265" y="439"/>
      <point x="308.991" y="469"/>
      <point x="366" y="469" type="curve" smooth="yes"/>
      <point x="434" y="469"/>
      <point x="459" y="428"/>
      <point x="462" y="377" type="curve"/>
      <point x="502" y="429"/>
      <point x="556" y="469"/>
      <point x="625" y="469" type="curve" smooth="yes"/>
      <point x="730" y="469"/>
      <point x="732" y="368"/>
    </contour>
  </outline>
</glyph>
<glyph name="n" format="2">
  <advance width="493"/>
  <unicode hex="006E"/>
  <outline>
    <contour>
      <point x="390" y="280" type="line" smooth="yes"/>
      <point x="406.611" y="328.448"/>
      <point x="409.067" y="394"/>
      <point x="342" y="394" type="curve" smooth="yes"/>
      <point x="274" y="394"/>
      <point x="212.124" y="345.957"/>
      <point x="192" y="288" type="curve" smooth="yes"/>
      <point x="92" y="0" type="line"/>
      <point x="13" y="0" type="line"/>
      <point x="173" y="460" type="line"/>
      <point x="251" y="460" type="line"/>
      <point x="228" y="393" type="line"/>
      <point x="266" y="437"/>
      <point x="314" y="469"/>
      <point x="375" y="469" type="curve" smooth="yes"/>
      <point x="480" y="469"/>
      <point x="496.938" y="371.021"/>
      <point x="469" y="290" type="curve" smooth="yes"/>
      <point x="369" y="0" type="line"/>
      <point x="294" y="0" type="line"/>
    </contour>
  </outline>
</glyph>
<glyph name="t" format="2">
  <advance width="225"/>
  <unicode hex="0074"/>
  <outline>
    <contour>
      <point x="110" y="460" type="line"/>
      <point x="329" y="460" type="line"/>
      <point x="302" y="385" type="line"/>
      <point x="82" y="385" type="line"/>
    </contour>
    <contour>
      <point x="230" y="619" type="line"/>
      <point x="311" y="620" type="line"/>
      <point x="96" y="0" type="line"/>
      <point x="22" y="0" type="line"/>
    </contour>
  </outline>
</glyph>
<glyph name="u" format="2">
  <advance width="493"/>
  <unicode hex="0075"/>
  <outline>
    <contour>
      <point x="153" y="180" type="line" smooth="yes"/>
      <point x="136.49" y="131.514"/>
      <point x="133.932" y="66"/>
      <point x="200" y="66" type="curve" smooth="yes"/>
      <point x="268" y="66"/>
      <point x="329.876" y="114.043"/>
      <point x="350" y="172" type="curve" smooth="yes"/>
      <point x="450" y="460" type="line"/>
      <point x="529" y="460" type="line"/>
      <point x="370" y="0" type="line"/>
      <point x="291" y="0" type="line"/>
      <point x="314" y="67" type="line"/>
      <point x="276" y="23"/>
      <point x="228" y="-9"/>
      <point x="167" y="-9" type="curve" smooth="yes"/>
      <point x="62" y="-9"/>
      <point x="44.8124" y="89.0653"/>
      <point x="73" y="170" type="curve" smooth="yes"/>
      <point x="174" y="460" type="line"/>
      <point x="248" y="459" type="line"/>
    </contour>
  </outline>
</glyph>
<glyph name="braceleft" format="2">
  <advance width="292"/>
  <unicode hex="007B"/>
  <outline>
    <contour>
      <point x="338" y="660" type="curve" smooth="yes"/>
      <point x="286" y="490" type="line" smooth="yes"/>
      <point x="256" y="393"/>
      <point x="221" y="305"/>
      <point x="113" y="281" type="curve"/>
      <point x="118" y="300" type="line"/>
      <point x="219" y="269"/>
      <point x="186" y="169"/>
      <point x="162" y="90" type="curve" smooth="yes"/>
      <point x="108" y="-81" type="line" smooth="yes"/>
      <point x="99" y="-109"/>
      <point x="108" y="-128"/>
      <point x="137" y="-129" type="curve" smooth="yes"/>
      <point x="173" y="-129" type="line"/>
      <point x="152" y="-200" type="line"/>
      <point x="97" y="-200" type="line" smooth="yes"/>
      <point x="25" y="-201"/>
      <point x="22" y="-114"/>
      <point x="39" y="-60" type="curve" smooth="yes"/>
      <point x="104" y="150" type="line" smooth="yes"/>
      <point x="117" y="194"/>
      <point x="123" y="225"/>
      <point x="91" y="260" type="curve"/>
      <point x="109" y="320" type="line"/>
      <point x="152" y="347"/>
      <point x="172" y="382"/>
      <point x="188" y="430" type="curve" smooth="yes"/>
      <point x="252" y="641" type="line" smooth="yes"/>
      <point x="274" y="704"/>
      <point x="320" y="779"/>
      <point x="392" y="779" type="curve" smooth="yes"/>
      <point x="452" y="779" type="line"/>
      <point x="432" y="710" type="line"/>
      <point x="400" y="710" type="line" smooth="yes"/>
      <point x="367" y="710"/>
      <point x="348" y="692"/>
    </contour>
  </outline>
</glyph>
<glyph name="bar" format="2">
  <advance width="257"/>
  <unicode hex="007C"/>
  <outline>
    <contour>
      <point x="300" y="784" type="line"/>
      <point x="372" y="784" type="line"/>
      <point x="65" y="-214" type="line"/>
      <point x="-7" y="-214" type="line"/>
    </contour>
  </outline>
</glyph>
<glyph name="asciitilde" format="2">
  <advance width="541"/>
  <unicode hex="007E"/>
  <outline>
    <contour>
      <point x="155" y="176" type="curve"/>
      <point x="85" y="181" type="line"/>
      <point x="86" y="189"/>
      <point x="86" y="198"/>
      <point x="88" y="206" type="curve" smooth="yes"/>
      <point x="96" y="231"/>
      <point x="113" y="256"/>
      <point x="131" y="275" type="curve" smooth="yes"/>
      <point x="160" y="304"/>
      <point x="202" y="326"/>
      <point x="244" y="326" type="curve" smooth="yes"/>
      <point x="285" y="326"/>
      <point x="316" y="304"/>
      <point x="346" y="279" type="curve" smooth="yes"/>
      <point x="361" y="266"/>
      <point x="381" y="247"/>
      <point x="403" y="248" type="curve" smooth="yes"/>
      <point x="429" y="249"/>
      <point x="451" y="274"/>
      <point x="461" y="296" type="curve" smooth="yes"/>
      <point x="465" y="304"/>
      <point x="465" y="314"/>
      <point x="465" y="323" type="curve"/>
      <point x="540" y="318" type="line"/>
      <point x="539" y="309"/>
      <point x="539" y="298"/>
      <point x="536" y="289" type="curve" smooth="yes"/>
      <point x="529" y="264"/>
      <point x="513" y="238"/>
      <point x="495" y="219" type="curve" smooth="yes"/>
      <point x="470" y="193"/>
      <point x="432" y="172"/>
      <point x="395" y="173" type="curve" smooth="yes"/>
      <point x="357" y="174"/>
      <point x="328" y="197"/>
      <point x="300" y="220" type="curve" smooth="yes"/>
      <point x="280" y="236"/>
      <point x="258" y="253"/>
      <point x="231" y="252" type="curve" smooth="yes"/>
      <point x="199" y="251"/>
      <point x="171" y="227"/>
      <point x="159" y="198" type="curve" smooth="yes"/>
      <point x="156" y="191"/>
      <point x="156" y="183"/>
    </contour>
  </outline>
</glyph>
<glyph name="exclamdown" format="2">
  <advance width="282"/>
  <unicode hex="00A1"/>
  <outline>
    <contour>
      <point x="53" y="-245" type="line"/>
      <point x="-47" y="-245" type="line"/>
      <point x="144" y="254" type="line"/>
      <point x="203" y="254" type="line"/>
    </contour>
    <contour>
      <point x="281" y="413" type="curve" smooth="yes"/>
      <point x="275" y="389"/>
      <point x="237" y="358"/>
      <point x="212" y="361" type="curve" smooth="yes"/>
      <point x="185" y="364"/>
      <point x="170" y="391"/>
      <point x="176" y="417" type="curve" smooth="yes"/>
      <point x="182" y="441"/>
      <point x="220" y="472"/>
      <point x="245" y="469" type="curve" smooth="yes"/>
      <point x="272" y="466"/>
      <point x="287" y="439"/>
    </contour>
  </outline>
</glyph>
<glyph name="sterling" format="2">
  <advance width="545"/>
  <unicode hex="00A3"/>
  <outline>
    <contour>
      <point x="134" y="370" type="line"/>
      <point x="476" y="370" type="line"/>
      <point x="449" y="295" type="line"/>
      <point x="107" y="295" type="line"/>
    </contour>
    <contour>
      <point x="534" y="480" type="line"/>
      <point x="546" y="541"/>
      <point x="549" y="622"/>
      <point x="467" y="625" type="curve" smooth="yes"/>
      <point x="401" y="628"/>
      <point x="339" y="579"/>
      <point x="315" y="520" type="curve" smooth="yes"/>
      <point x="281" y="435"/>
      <point x="344" y="349"/>
      <point x="318" y="263" type="curve" smooth="yes"/>
      <point x="288" y="162"/>
      <point x="202" y="87"/>
      <point x="105" y="52" type="curve"/>
      <point x="116" y="80" type="line"/>
      <point x="462" y="80" type="line"/>
      <point x="433" y="0" type="line"/>
      <point x="6" y="0" type="line"/>
      <point x="88" y="73"/>
      <point x="197" y="139"/>
      <point x="234" y="249" type="curve" smooth="yes"/>
      <point x="264" y="339"/>
      <point x="202" y="428"/>
      <point x="230" y="519" type="curve" smooth="yes"/>
      <point x="263" y="625"/>
      <point x="371" y="711"/>
      <point x="484" y="709" type="curve" smooth="yes"/>
      <point x="598" y="707"/>
      <point x="626" y="603"/>
      <point x="611" y="508" type="curve"/>
    </contour>
  </outline>
</glyph>
<glyph name="section" format="2">
  <advance width="383"/>
  <unicode hex="00A7"/>
  <outline>
    <contour>
      <point x="439" y="580" type="line"/>
      <point x="422" y="612"/>
      <point x="403" y="633"/>
      <point x="364" y="633" type="curve" smooth="yes"/>
      <point x="335" y="633"/>
      <point x="289" y="619"/>
      <point x="278" y="588" type="curve" smooth="yes"/>
      <point x="263" y="545"/>
      <point x="323" y="522"/>
      <point x="351" y="506" type="curve" smooth="yes"/>
      <point x="403" y="477"/>
      <point x="447" y="433"/>
      <point x="429" y="369" type="curve" smooth="yes"/>
      <point x="403" y="275"/>
      <point x="311" y="248"/>
      <point x="225" y="242" type="curve"/>
      <point x="236" y="275" type="line"/>
      <point x="280" y="289"/>
      <point x="334" y="314"/>
      <point x="348" y="363" type="curve" smooth="yes"/>
      <point x="362" y="412"/>
      <point x="321" y="434"/>
      <point x="284" y="454" type="curve" smooth="yes"/>
      <point x="231" y="483"/>
      <point x="180" y="522"/>
      <point x="201" y="590" type="curve" smooth="yes"/>
      <point x="223" y="662"/>
      <point x="306" y="708"/>
      <point x="378" y="709" type="curve" smooth="yes"/>
      <point x="443" y="710"/>
      <point x="490" y="679"/>
      <point x="510" y="618" type="curve"/>
    </contour>
    <contour>
      <point x="88" y="160" type="line"/>
      <point x="91" y="110"/>
      <point x="108" y="67"/>
      <point x="165" y="66" type="curve" smooth="yes"/>
      <point x="203" y="65"/>
      <point x="251" y="86"/>
      <point x="265" y="124" type="curve" smooth="yes"/>
      <point x="283" y="173"/>
      <point x="237" y="195"/>
      <point x="202" y="215" type="curve" smooth="yes"/>
      <point x="147" y="246"/>
      <point x="101" y="292"/>
      <point x="122" y="360" type="curve" smooth="yes"/>
      <point x="150" y="450"/>
      <point x="242" y="472"/>
      <point x="325" y="478" type="curve"/>
      <point x="316" y="453" type="line"/>
      <point x="272" y="436"/>
      <point x="220" y="417"/>
      <point x="202" y="369" type="curve" smooth="yes"/>
      <point x="181" y="313"/>
      <point x="228" y="289"/>
      <point x="269" y="266" type="curve" smooth="yes"/>
      <point x="321" y="237"/>
      <point x="364" y="193"/>
      <point x="347" y="129" type="curve" smooth="yes"/>
      <point x="324" y="42"/>
      <point x="231" y="-11"/>
      <point x="145" y="-9" type="curve" smooth="yes"/>
      <point x="63" y="-7"/>
      <point x="19" y="46"/>
      <point x="15" y="124" type="curve"/>
    </contour>
  </outline>
</glyph>
<glyph name="ordfeminine" format="2">
  <advance width="223"/>
  <unicode hex="00AA"/>
  <outline>
    <contour>
      <point x="184" y="531" type="curve" smooth="yes"/>
      <point x="179" y="510"/>
      <point x="194" y="494"/>
      <point x="214" y="492" type="curve" smooth="yes"/>
      <point x="253" y="488"/>
      <point x="279" y="522"/>
      <point x="301" y="549" type="curve"/>
      <point x="301" y="523" type="line"/>
      <point x="277" y="487"/>
      <point x="246" y="454"/>
      <point x="198" y="456" type="curve" smooth="yes"/>
      <point x="156" y="458"/>
      <point x="132" y="494"/>
      <point x="145" y="534" type="curve" smooth="yes"/>
      <point x="160" y="580"/>
      <point x="216" y="612"/>
      <point x="262" y="612" type="curve" smooth="yes"/>
      <point x="290" y="612"/>
      <point x="309" y="600"/>
      <point x="329" y="582" type="curve"/>
      <point x="321" y="559" type="line"/>
      <point x="302" y="571"/>
      <point x="285" y="584"/>
      <point x="261" y="583" type="curve" smooth="yes"/>
      <point x="234" y="582"/>
      <point x="191" y="560"/>
    </contour>
    <contour>
      <point x="225" y="646" type="curve"/>
      <point x="216" y="679" type="line"/>
      <point x="244" y="692"/>
      <point x="274" y="706"/>
      <point x="305" y="705" type="curve" smooth="yes"/>
      <point x="347" y="704"/>
      <point x="376" y="678"/>
      <point x="368" y="634" type="curve"/>
      <point x="309" y="461" type="line"/>
      <point x="269" y="461" type="line"/>
      <point x="331" y="635" type="line"/>
      <point x="325" y="654"/>
      <point x="323" y="665"/>
      <point x="300" y="668" type="curve" smooth="yes"/>
      <point x="275" y="671"/>
      <point x="247" y="656"/>
    </contour>
  </outline>
</glyph>
<glyph name="registered" format="2">
  <advance width="752"/>
  <unicode hex="00AE"/>
  <outline>
    <contour>
      <point x="402" y="358" type="line"/>
      <point x="455" y="358" type="line"/>
      <point x="537" y="149" type="line"/>
      <point x="478" y="149" type="line"/>
    </contour>
    <contour>
      <point x="398" y="569" type="line"/>
      <point x="448" y="569" type="line"/>
      <point x="319" y="151" type="line"/>
      <point x="269" y="151" type="line"/>
    </contour>
    <contour>
      <point x="410" y="525" type="line"/>
      <point x="424" y="569" type="line"/>
      <point x="503" y="570" type="line"/>
      <point x="573" y="566"/>
      <point x="624" y="516"/>
      <point x="604" y="443" type="curve" smooth="yes"/>
      <point x="583" y="368"/>
      <point x="506" y="323"/>
      <point x="432" y="319" type="curve"/>
      <point x="347" y="319" type="line"/>
      <point x="360" y="362" type="line"/>
      <point x="439" y="363" type="line"/>
      <point x="487" y="367"/>
      <point x="539" y="395"/>
      <point x="554" y="444" type="curve" smooth="yes"/>
      <point x="568" y="490"/>
      <point x="539" y="519"/>
      <point x="495" y="524" type="curve"/>
    </contour>
    <contour>
      <point x="164" y="350" type="curve" smooth="yes"/>
      <point x="117" y="205"/>
      <point x="179" y="42"/>
      <point x="349" y="41" type="curve" smooth="yes"/>
      <point x="525" y="40"/>
      <point x="684" y="189"/>
      <point x="736" y="350" type="curve" smooth="yes"/>
      <point x="783" y="495"/>
      <point x="721" y="658"/>
      <point x="551" y="659" type="curve" smooth="yes"/>
      <point x="375" y="660"/>
      <point x="216" y="511"/>
    </contour>
    <contour>
      <point x="109" y="350" type="curve" smooth="yes"/>
      <point x="165" y="540"/>
      <point x="350" y="711"/>
      <point x="555" y="710" type="curve" smooth="yes"/>
      <point x="753" y="709"/>
      <point x="841" y="526"/>
      <point x="790" y="350" type="curve" smooth="yes"/>
      <point x="734" y="160"/>
      <point x="550" y="-11"/>
      <point x="345" y="-10" type="curve" smooth="yes"/>
      <point x="147" y="-9"/>
      <point x="58" y="174"/>
    </contour>
  </outline>
</glyph>
<glyph name="paragraph" format="2">
  <advance width="543"/>
  <unicode hex="00B6"/>
  <outline>
    <contour>
      <point x="308.218" y="271.435" type="line"/>
      <point x="190.645" y="285.74"/>
      <point x="127.712" y="367.488"/>
      <point x="166" y="486" type="curve" smooth="yes"/>
      <point x="208" y="616"/>
      <point x="323" y="699"/>
      <point x="454" y="699" type="curve" smooth="yes"/>
      <point x="673" y="699" type="line"/>
      <point x="360" y="-219" type="line"/>
      <point x="292" y="-219" type="line"/>
      <point x="583.52" y="636" type="line"/>
      <point x="500.52" y="636" type="line"/>
      <point x="209" y="-219" type="line"/>
      <point x="141" y="-219" type="line"/>
    </contour>
  </outline>
</glyph>
<glyph name="questiondown" format="2">
  <advance width="524"/>
  <unicode hex="00BF"/>
  <outline>
    <contour>
      <point x="147" y="200" type="curve" smooth="yes"/>
      <point x="120" y="129"/>
      <point x="154" y="67"/>
      <point x="233" y="66" type="curve" smooth="yes"/>
      <point x="298" y="65"/>
      <point x="353" y="106"/>
      <point x="399" y="147" type="curve"/>
      <point x="452" y="104" type="line"/>
      <point x="385" y="41"/>
      <point x="306" y="-11"/>
      <point x="210" y="-9" type="curve" smooth="yes"/>
      <point x="94" y="-7"/>
      <point x="35" y="94"/>
      <point x="69" y="201" type="curve" smooth="yes"/>
      <point x="107" y="319"/>
      <point x="220" y="389"/>
      <point x="337" y="410" type="curve"/>
      <point x="387" y="529" type="line"/>
      <point x="446" y="530" type="line"/>
      <point x="408" y="355" type="line"/>
      <point x="385" y="355" type="line" smooth="yes"/>
      <point x="289" y="350"/>
      <point x="182" y="294"/>
    </contour>
    <contour>
      <point x="513" y="658" type="curve" smooth="yes"/>
      <point x="507" y="634"/>
      <point x="468" y="603"/>
      <point x="443" y="606" type="curve" smooth="yes"/>
      <point x="416" y="609"/>
      <point x="401" y="636"/>
      <point x="407" y="662" type="curve" smooth="yes"/>
      <point x="413" y="686"/>
      <point x="451" y="717"/>
      <point x="476" y="714" type="curve" smooth="yes"/>
      <point x="503" y="711"/>
      <point x="519" y="684"/>
    </contour>
  </outline>
</glyph>
<glyph name="Egrave" format="2">
  <advance width="517"/>
  <unicode hex="00C8"/>
  <outline>
    <contour>
      <point x="66" y="0" type="line"/>
      <point x="92" y="80" type="line"/>
      <point x="428" y="80" type="line"/>
      <point x="401" y="0" type="line"/>
    </contour>
    <contour>
      <point x="278" y="621" type="line"/>
      <point x="304" y="700" type="line"/>
      <point x="639" y="700" type="line"/>
      <point x="612" y="620" type="line"/>
    </contour>
    <contour>
      <point x="182" y="341" type="line"/>
      <point x="209" y="420" type="line"/>
      <point x="525" y="420" type="line"/>
      <point x="498" y="340" type="line"/>
    </contour>
    <contour>
      <point x="257" y="699" type="line"/>
      <point x="343" y="700" type="line"/>
      <point x="101" y="0" type="line"/>
      <point x="22" y="0" type="line"/>
    </contour>
    <contour>
      <point x="399" y="922" type="line"/>
      <point x="482" y="960" type="line"/>
      <point x="573" y="798" type="line"/>
      <point x="524" y="770" type="line"/>
    </contour>
  </outline>
</glyph>
<glyph name="Eacute" format="2">
  <advance width="517"/>
  <unicode hex="00C9"/>
  <outline>
    <contour>
      <point x="66" y="0" type="line"/>
      <point x="92" y="80" type="line"/>
      <point x="428" y="80" type="line"/>
      <point x="401" y="0" type="line"/>
    </contour>
    <contour>
      <point x="278" y="621" type="line"/>
      <point x="304" y="700" type="line"/>
      <point x="639" y="700" type="line"/>
      <point x="612" y="620" type="line"/>
    </contour>
    <contour>
      <point x="182" y="341" type="line"/>
      <point x="209" y="420" type="line"/>
      <point x="525" y="420" type="line"/>
      <point x="498" y="340" type="line"/>
    </contour>
    <contour>
      <point x="257" y="699" type="line"/>
      <point x="343" y="700" type="line"/>
      <point x="101" y="0" type="line"/>
      <point x="22" y="0" type="line"/>
    </contour>
    <contour>
      <point x="647" y="915" type="line"/>
      <point x="429" y="772" type="line"/>
      <point x="391" y="803" type="line"/>
      <point x="585" y="959" type="line"/>
    </contour>
  </outline>
</glyph>
<glyph name="Igrave" format="2">
  <advance width="230"/>
  <unicode hex="00CC"/>
  <outline>
    <contour>
      <point x="257" y="699" type="line"/>
      <point x="343" y="700" type="line"/>
      <point x="101" y="0" type="line"/>
      <point x="22" y="0" type="line"/>
    </contour>
    <contour>
      <point x="251" y="922" type="line"/>
      <point x="334" y="960" type="line"/>
      <point x="425" y="798" type="line"/>
      <point x="375" y="770" type="line"/>
    </contour>
  </outline>
</glyph>
<glyph name="Idieresis" format="2">
  <advance width="230"/>
  <unicode hex="00CF"/>
  <outline>
    <contour>
      <point x="257" y="699" type="line"/>
      <point x="343" y="700" type="line"/>
      <point x="101" y="0" type="line"/>
      <point x="22" y="0" type="line"/>
    </contour>
    <contour>
      <point x="384" y="827" type="curve" smooth="yes"/>
      <point x="390" y="850"/>
      <point x="428" y="882"/>
      <point x="453" y="879" type="curve" smooth="yes"/>
      <point x="480" y="876"/>
      <point x="496" y="849"/>
      <point x="490" y="823" type="curve" smooth="yes"/>
      <point x="484" y="799"/>
      <point x="445" y="768"/>
      <point x="420" y="771" type="curve" smooth="yes"/>
      <point x="392" y="774"/>
      <point x="378" y="802"/>
    </contour>
    <contour>
      <point x="196" y="827" type="curve" smooth="yes"/>
      <point x="202" y="850"/>
      <point x="239" y="882"/>
      <point x="264" y="879" type="curve" smooth="yes"/>
      <point x="291" y="876"/>
      <point x="308" y="849"/>
      <point x="302" y="823" type="curve" smooth="yes"/>
      <point x="296" y="799"/>
      <point x="257" y="768"/>
      <point x="232" y="771" type="curve" smooth="yes"/>
      <point x="204" y="774"/>
      <point x="190" y="802"/>
    </contour>
  </outline>
</glyph>
<glyph name="Otilde" format="2">
  <advance width="743"/>
  <unicode hex="00D5"/>
  <outline>
    <contour>
      <point x="189" y="350" type="curve" smooth="yes"/>
      <point x="145" y="226"/>
      <point x="184" y="78"/>
      <point x="337" y="76" type="curve" smooth="yes"/>
      <point x="494" y="74"/>
      <point x="635" y="210"/>
      <point x="685" y="350" type="curve" smooth="yes"/>
      <point x="729" y="474"/>
      <point x="690" y="622"/>
      <point x="537" y="624" type="curve" smooth="yes"/>
      <point x="380" y="626"/>
      <point x="239" y="490"/>
    </contour>
    <contour>
      <point x="101" y="350" type="curve" smooth="yes"/>
      <point x="162" y="538"/>
      <point x="349" y="711"/>
      <point x="554" y="710" type="curve" smooth="yes"/>
      <point x="753" y="709"/>
      <point x="828" y="521"/>
      <point x="773" y="350" type="curve" smooth="yes"/>
      <point x="712" y="162"/>
      <point x="525" y="-11"/>
      <point x="320" y="-10" type="curve" smooth="yes"/>
      <point x="121" y="-9"/>
      <point x="46" y="179"/>
    </contour>
    <contour>
      <point x="436" y="810" type="line"/>
      <point x="427" y="850"/>
      <point x="530" y="889"/>
      <point x="558" y="888" type="curve" smooth="yes"/>
      <point x="597" y="886"/>
      <point x="619" y="840"/>
      <point x="659" y="843" type="curve" smooth="yes"/>
      <point x="687" y="845"/>
      <point x="711" y="872"/>
      <point x="730" y="889" type="curve"/>
      <point x="763" y="844" type="line"/>
      <point x="733" y="813"/>
      <point x="691" y="771"/>
      <point x="643" y="775" type="curve" smooth="yes"/>
      <point x="605" y="778"/>
      <point x="584" y="822"/>
      <point x="545" y="820" type="curve" smooth="yes"/>
      <point x="515" y="818"/>
      <point x="495" y="792"/>
      <point x="478" y="771" type="curve"/>
    </contour>
  </outline>
</glyph>
<glyph name="Oslash" format="2">
  <advance width="743"/>
  <unicode hex="00D8"/>
  <outline>
    <contour>
      <point x="189" y="350" type="curve" smooth="yes"/>
      <point x="145" y="226"/>
      <point x="184" y="78"/>
      <point x="337" y="76" type="curve" smooth="yes"/>
      <point x="494" y="74"/>
      <point x="635" y="210"/>
      <point x="685" y="350" type="curve" smooth="yes"/>
      <point x="729" y="474"/>
      <point x="690" y="622"/>
      <point x="537" y="624" type="curve" smooth="yes"/>
      <point x="380" y="626"/>
      <point x="239" y="490"/>
    </contour>
    <contour>
      <point x="101" y="350" type="curve" smooth="yes"/>
      <point x="162" y="538"/>
      <point x="349" y="711"/>
      <point x="554" y="710" type="curve" smooth="yes"/>
      <point x="753" y="709"/>
      <point x="828" y="521"/>
      <point x="773" y="350" type="curve" smooth="yes"/>
      <point x="712" y="162"/>
      <point x="525" y="-11"/>
      <point x="320" y="-10" type="curve" smooth="yes"/>
      <point x="121" y="-9"/>
      <point x="46" y="179"/>
    </contour>
    <contour>
      <point x="845" y="749" type="line"/>
      <point x="893" y="707" type="line"/>
      <point x="25" y="-49" type="line"/>
      <point x="-22" y="-7" type="line"/>
    </contour>
  </outline>
</glyph>
<glyph name="Thorn" format="2">
  <advance width="517"/>
  <unicode hex="00DE"/>
  <outline>
    <contour>
      <point x="257" y="699" type="line"/>
      <point x="343" y="700" type="line"/>
      <point x="101" y="0" type="line"/>
      <point x="22" y="0" type="line"/>
    </contour>
    <contour>
      <point x="226" y="480" type="line"/>
      <point x="255" y="560" type="line"/>
      <point x="385" y="560" type="line" smooth="yes"/>
      <point x="504" y="555"/>
      <point x="583" y="469"/>
      <point x="545" y="349" type="curve" smooth="yes"/>
      <point x="506" y="224"/>
      <point x="380" y="145"/>
      <point x="253" y="140" type="curve" smooth="yes"/>
      <point x="110" y="140" type="line"/>
      <point x="139" y="220" type="line"/>
      <point x="269" y="220" type="line" smooth="yes"/>
      <point x="352" y="224"/>
      <point x="433" y="269"/>
      <point x="463" y="350" type="curve" smooth="yes"/>
      <point x="491" y="427"/>
      <point x="445" y="474"/>
      <point x="369" y="479" type="curve"/>
    </contour>
  </outline>
</glyph>
<glyph name="ae" format="2">
  <advance width="776"/>
  <unicode hex="00E6"/>
  <outline>
    <contour>
      <point x="158" y="-10" type="curve" smooth="yes"/>
      <point x="49" y="-10"/>
      <point x="10" y="53"/>
      <point x="10" y="115" type="curve" smooth="yes"/>
      <point x="10" y="201"/>
      <point x="100" y="286"/>
      <point x="226" y="286" type="curve" smooth="yes"/>
      <point x="280" y="286"/>
      <point x="320" y="272"/>
      <point x="388" y="230" type="curve"/>
      <point x="352" y="230" type="line"/>
      <point x="378" y="320" type="line" smooth="yes"/>
      <point x="394.411" y="376.807"/>
      <point x="360" y="400"/>
      <point x="318" y="400" type="curve" smooth="yes"/>
      <point x="273" y="400"/>
      <point x="221" y="382"/>
      <point x="181" y="352" type="curve"/>
      <point x="142" y="413" type="line"/>
      <point x="192" y="450"/>
      <point x="254" y="470"/>
      <point x="318" y="470" type="curve" smooth="yes"/>
      <point x="409" y="470"/>
      <point x="465" y="430"/>
      <point x="444" y="356" type="curve"/>
      <point x="414" y="326" type="line"/>
      <point x="450" y="397"/>
      <point x="531" y="470"/>
      <point x="643" y="470" type="curve" smooth="yes"/>
      <point x="725" y="470"/>
      <point x="783" y="413"/>
      <point x="783" y="304" type="curve" smooth="yes"/>
      <point x="783" y="263"/>
      <point x="774" y="234"/>
      <point x="763" y="210" type="curve"/>
      <point x="404" y="210" type="line"/>
      <point x="426" y="229" type="line"/>
      <point x="396" y="156"/>
      <point x="411" y="65"/>
      <point x="503" y="65" type="curve" smooth="yes"/>
      <point x="565" y="65"/>
      <point x="623" y="92"/>
      <point x="657" y="148" type="curve"/>
      <point x="722" y="107" type="line"/>
      <point x="672" y="30"/>
      <point x="577" y="-10"/>
      <point x="503" y="-10" type="curve" smooth="yes"/>
      <point x="413" y="-10"/>
      <point x="358" y="26"/>
      <point x="340" y="110" type="curve"/>
      <point x="360" y="110" type="line"/>
      <point x="318" y="36"/>
      <point x="258" y="-10"/>
    </contour>
    <contour>
      <point x="188" y="61" type="curve" smooth="yes"/>
      <point x="258" y="61"/>
      <point x="312" y="102"/>
      <point x="354" y="192" type="curve"/>
      <point x="341" y="116" type="line"/>
      <point x="347" y="221" type="line"/>
      <point x="354" y="194" type="line"/>
      <point x="318" y="214"/>
      <point x="276" y="225"/>
      <point x="230" y="225" type="curve" smooth="yes"/>
      <point x="162" y="225"/>
      <point x="91" y="184"/>
      <point x="91" y="125" type="curve" smooth="yes"/>
      <point x="91" y="74"/>
      <point x="121" y="61"/>
    </contour>
    <contour>
      <point x="426" y="239" type="curve"/>
      <point x="404" y="278" type="line"/>
      <point x="726" y="278" type="line"/>
      <point x="702" y="250" type="line"/>
      <point x="704" y="254"/>
      <point x="704" y="258"/>
      <point x="704" y="266" type="curve" smooth="yes"/>
      <point x="704" y="348"/>
      <point x="702" y="400"/>
      <point x="621" y="400" type="curve" smooth="yes"/>
      <point x="533" y="400"/>
      <point x="476" y="337"/>
    </contour>
  </outline>
</glyph>
<glyph name="igrave" format="2">
  <advance width="244"/>
  <unicode hex="00EC"/>
  <outline>
    <contour>
      <point x="184" y="459" type="line"/>
      <point x="266" y="460" type="line"/>
      <point x="105" y="0" type="line"/>
      <point x="31" y="0" type="line"/>
    </contour>
    <contour>
      <point x="155" y="702" type="line"/>
      <point x="238" y="740" type="line"/>
      <point x="329" y="578" type="line"/>
      <point x="279" y="550" type="line"/>
    </contour>
  </outline>
</glyph>
<glyph name="idieresis" format="2">
  <advance width="244"/>
  <unicode hex="00EF"/>
  <outline>
    <contour>
      <point x="184" y="459" type="line"/>
      <point x="266" y="460" type="line"/>
      <point x="105" y="0" type="line"/>
      <point x="31" y="0" type="line"/>
    </contour>
    <contour>
      <point x="319" y="617" type="curve" smooth="yes"/>
      <point x="325" y="641"/>
      <point x="363" y="672"/>
      <point x="388" y="669" type="curve" smooth="yes"/>
      <point x="415" y="666"/>
      <point x="431" y="639"/>
      <point x="425" y="613" type="curve" smooth="yes"/>
      <point x="419" y="589"/>
      <point x="381" y="558"/>
      <point x="356" y="561" type="curve" smooth="yes"/>
      <point x="329" y="564"/>
      <point x="313" y="591"/>
    </contour>
    <contour>
      <point x="131" y="617" type="curve" smooth="yes"/>
      <point x="137" y="641"/>
      <point x="175" y="672"/>
      <point x="200" y="669" type="curve" smooth="yes"/>
      <point x="227" y="666"/>
      <point x="243" y="639"/>
      <point x="237" y="613" type="curve" smooth="yes"/>
      <point x="231" y="589"/>
      <point x="193" y="558"/>
      <point x="168" y="561" type="curve" smooth="yes"/>
      <point x="141" y="564"/>
      <point x="125" y="591"/>
    </contour>
  </outline>
</glyph>
<glyph name="oacute" format="2">
  <advance width="513"/>
  <unicode hex="00F3"/>
  <outline>
    <contour>
      <point x="55" y="230" type="curve" smooth="yes"/>
      <point x="95" y="355"/>
      <point x="221" y="469"/>
      <point x="357" y="469" type="curve" smooth="yes"/>
      <point x="490" y="469"/>
      <point x="544" y="346"/>
      <point x="507" y="230" type="curve" smooth="yes"/>
      <point x="467" y="105"/>
      <point x="341" y="-9"/>
      <point x="205" y="-9" type="curve" smooth="yes"/>
      <point x="72" y="-9"/>
      <point x="18" y="114"/>
    </contour>
    <contour>
      <point x="134" y="230" type="curve" smooth="yes"/>
      <point x="107" y="157"/>
      <point x="128" y="67"/>
      <point x="219" y="66" type="curve" smooth="yes"/>
      <point x="312" y="65"/>
      <point x="398" y="147"/>
      <point x="428" y="230" type="curve" smooth="yes"/>
      <point x="455" y="303"/>
      <point x="434" y="393"/>
      <point x="343" y="394" type="curve" smooth="yes"/>
      <point x="250" y="395"/>
      <point x="164" y="313"/>
    </contour>
    <contour>
      <point x="593" y="695" type="line"/>
      <point x="376" y="552" type="line"/>
      <point x="338" y="583" type="line"/>
      <point x="531" y="739" type="line"/>
    </contour>
  </outline>
</glyph>
<glyph name="ocircumflex" format="2">
  <advance width="513"/>
  <unicode hex="00F4"/>
  <outline>
    <contour>
      <point x="55" y="230" type="curve" smooth="yes"/>
      <point x="95" y="355"/>
      <point x="221" y="469"/>
      <point x="357" y="469" type="curve" smooth="yes"/>
      <point x="490" y="469"/>
      <point x="544" y="346"/>
      <point x="507" y="230" type="curve" smooth="yes"/>
      <point x="467" y="105"/>
      <point x="341" y="-9"/>
      <point x="205" y="-9" type="curve" smooth="yes"/>
      <point x="72" y="-9"/>
      <point x="18" y="114"/>
    </contour>
    <contour>
      <point x="134" y="230" type="curve" smooth="yes"/>
      <point x="107" y="157"/>
      <point x="128" y="67"/>
      <point x="219" y="66" type="curve" smooth="yes"/>
      <point x="312" y="65"/>
      <point x="398" y="147"/>
      <point x="428" y="230" type="curve" smooth="yes"/>
      <point x="455" y="303"/>
      <point x="434" y="393"/>
      <point x="343" y="394" type="curve" smooth="yes"/>
      <point x="250" y="395"/>
      <point x="164" y="313"/>
    </contour>
    <contour>
      <point x="428" y="644" type="line"/>
      <point x="290" y="551" type="line"/>
      <point x="252" y="593" type="line"/>
      <point x="448" y="730" type="line"/>
      <point x="556" y="588" type="line"/>
      <point x="499" y="551" type="line"/>
    </contour>
  </outline>
</glyph>
<glyph name="Aogonek" format="2">
  <advance width="620"/>
  <unicode hex="0104"/>
  <outline>
    <contour>
      <point x="156" y="212" type="line"/>
      <point x="209" y="289" type="line"/>
      <point x="504" y="290" type="line"/>
      <point x="506" y="210" type="line"/>
    </contour>
    <contour>
      <point x="446" y="542" type="line"/>
      <point x="239" y="264" type="line"/>
      <point x="226" y="246" type="line"/>
      <point x="42" y="0" type="line"/>
      <point x="-55" y="0" type="line"/>
      <point x="507" y="738" type="line"/>
      <point x="561" y="0" type="line"/>
      <point x="473" y="0" type="line"/>
      <point x="459" y="240" type="line"/>
      <point x="459" y="260" type="line"/>
    </contour>
    <contour>
      <point x="520" y="-130" type="curve"/>
      <point x="537" y="-183" type="line"/>
      <point x="508" y="-202"/>
      <point x="479" y="-218"/>
      <point x="444" y="-219" type="curve" smooth="yes"/>
      <point x="384" y="-221"/>
      <point x="339" y="-181"/>
      <point x="357" y="-119" type="curve" smooth="yes"/>
      <point x="379" y="-46"/>
      <point x="465" y="-6"/>
      <point x="528" y="24" type="curve"/>
      <point x="564" y="0" type="line"/>
      <point x="523" y="-23"/>
      <point x="454" y="-49"/>
      <point x="440" y="-100" type="curve" smooth="yes"/>
      <point x="434" y="-122"/>
      <point x="440" y="-145"/>
      <point x="465" y="-149" type="curve" smooth="yes"/>
      <point x="483" y="-152"/>
      <point x="505" y="-138"/>
    </contour>
  </outline>
</glyph>
<glyph name="Cacute" format="2">
  <advance width="644"/>
  <unicode hex="0106"/>
  <outline>
    <contour>
      <point x="189" y="350" type="curve" smooth="yes"/>
      <point x="146" y="229"/>
      <point x="182" y="79"/>
      <point x="332" y="76" type="curve" smooth="yes"/>
      <point x="426" y="74"/>
      <point x="512" y="123"/>
      <point x="585" y="177" type="curve"/>
      <point x="550" y="66" type="line"/>
      <point x="479" y="20"/>
      <point x="401" y="-11"/>
      <point x="315" y="-10" type="curve" smooth="yes"/>
      <point x="118" y="-8"/>
      <point x="46" y="182"/>
      <point x="101" y="350" type="curve" smooth="yes"/>
      <point x="162" y="537"/>
      <point x="345" y="708"/>
      <point x="549" y="710" type="curve" smooth="yes"/>
      <point x="625" y="711"/>
      <point x="687" y="686"/>
      <point x="741" y="632" type="curve"/>
      <point x="705" y="521" type="line"/>
      <point x="668" y="589"/>
      <point x="610" y="624"/>
      <point x="532" y="624" type="curve" smooth="yes"/>
      <point x="378" y="623"/>
      <point x="239" y="489"/>
    </contour>
    <contour>
      <point x="750" y="915" type="line"/>
      <point x="533" y="772" type="line"/>
      <point x="495" y="803" type="line"/>
      <point x="688" y="959" type="line"/>
    </contour>
  </outline>
</glyph>
<glyph name="Edotaccent" format="2">
  <advance width="517"/>
  <unicode hex="0116"/>
  <outline>
    <contour>
      <point x="66" y="0" type="line"/>
      <point x="92" y="80" type="line"/>
      <point x="428" y="80" type="line"/>
      <point x="401" y="0" type="line"/>
    </contour>
    <contour>
      <point x="278" y="621" type="line"/>
      <point x="304" y="700" type="line"/>
      <point x="639" y="700" type="line"/>
      <point x="612" y="620" type="line"/>
    </contour>
    <contour>
      <point x="182" y="341" type="line"/>
      <point x="209" y="420" type="line"/>
      <point x="525" y="420" type="line"/>
      <point x="498" y="340" type="line"/>
    </contour>
    <contour>
      <point x="257" y="699" type="line"/>
      <point x="343" y="700" type="line"/>
      <point x="101" y="0" type="line"/>
      <point x="22" y="0" type="line"/>
    </contour>
    <contour>
      <point x="438" y="827" type="curve" smooth="yes"/>
      <point x="444" y="851"/>
      <point x="482" y="882"/>
      <point x="507" y="879" type="curve" smooth="yes"/>
      <point x="534" y="876"/>
      <point x="550" y="849"/>
      <point x="544" y="823" type="curve" smooth="yes"/>
      <point x="538" y="799"/>
      <point x="499" y="768"/>
      <point x="474" y="771" type="curve" smooth="yes"/>
      <point x="447" y="774"/>
      <point x="432" y="801"/>
    </contour>
  </outline>
</glyph>
<glyph name="ecaron" format="2">
  <advance width="484"/>
  <unicode hex="011B"/>
  <outline>
    <contour>
      <point x="98" y="211" type="line"/>
      <point x="120" y="277" type="line"/>
      <point x="408" y="278" type="line"/>
      <point x="418" y="339"/>
      <point x="409" y="397"/>
      <point x="335" y="399" type="curve" smooth="yes"/>
      <point x="249" y="401"/>
      <point x="181" y="332"/>
      <point x="147" y="260" type="curve" smooth="yes"/>
      <point x="134" y="230" type="line"/>
      <point x="108" y="158"/>
      <point x="117" y="69"/>
      <point x="210" y="66" type="curve" smooth="yes"/>
      <point x="274" y="64"/>
      <point x="329" y="107"/>
      <point x="375" y="147" type="curve"/>
      <point x="428" y="104" type="line"/>
      <point x="361" y="41"/>
      <point x="281" y="-11"/>
      <point x="186" y="-9" type="curve" smooth="yes"/>
      <point x="54" y="-6"/>
      <point x="22" y="122"/>
      <point x="55" y="230" type="curve" smooth="yes"/>
      <point x="60" y="247"/>
      <point x="67" y="263"/>
      <point x="75" y="279" type="curve" smooth="yes"/>
      <point x="125" y="380"/>
      <point x="230" y="470"/>
      <point x="348" y="469" type="curve" smooth="yes"/>
      <point x="484" y="468"/>
      <point x="510" y="344"/>
      <point x="479" y="234" type="curve" smooth="yes"/>
      <point x="477" y="226"/>
      <point x="475" y="219"/>
      <point x="472" y="211" type="curve"/>
    </contour>
    <contour>
      <point x="398" y="616" type="line"/>
      <point x="535" y="709" type="line"/>
      <point x="574" y="667" type="line"/>
      <point x="378" y="530" type="line"/>
      <point x="270" y="672" type="line"/>
      <point x="327" y="709" type="line"/>
    </contour>
  </outline>
</glyph>
<glyph name="Gdotaccent" format="2">
  <advance width="729"/>
  <unicode hex="0120"/>
  <outline>
    <contour>
      <point x="418" y="275" type="line"/>
      <point x="447" y="355" type="line"/>
      <point x="753" y="354" type="line"/>
      <point x="686" y="171"/>
      <point x="530" y="-10"/>
      <point x="320" y="-10" type="curve" smooth="yes"/>
      <point x="120" y="-10"/>
      <point x="45" y="179"/>
      <point x="101" y="350" type="curve" smooth="yes"/>
      <point x="163" y="540"/>
      <point x="347" y="709"/>
      <point x="554" y="710" type="curve" smooth="yes"/>
      <point x="662" y="711"/>
      <point x="744" y="659"/>
      <point x="784" y="559" type="curve"/>
      <point x="711" y="507" type="line"/>
      <point x="683" y="586"/>
      <point x="621" y="625"/>
      <point x="537" y="624" type="curve" smooth="yes"/>
      <point x="380" y="623"/>
      <point x="240" y="492"/>
      <point x="189" y="350" type="curve" smooth="yes"/>
      <point x="145" y="226"/>
      <point x="184" y="77"/>
      <point x="337" y="76" type="curve" smooth="yes"/>
      <point x="470" y="75"/>
      <point x="571" y="173"/>
      <point x="641" y="275" type="curve"/>
    </contour>
    <contour>
      <point x="546" y="827" type="curve" smooth="yes"/>
      <point x="552" y="851"/>
      <point x="590" y="882"/>
      <point x="615" y="879" type="curve" smooth="yes"/>
      <point x="642" y="876"/>
      <point x="658" y="849"/>
      <point x="652" y="823" type="curve" smooth="yes"/>
      <point x="646" y="799"/>
      <point x="608" y="768"/>
      <point x="583" y="771" type="curve" smooth="yes"/>
      <point x="556" y="774"/>
      <point x="540" y="801"/>
    </contour>
  </outline>
</glyph>
<glyph name="hcircumflex" format="2">
  <advance width="493"/>
  <unicode hex="0125"/>
  <outline>
    <contour>
      <point x="361" y="780" type="line"/>
      <point x="92" y="0" type="line"/>
      <point x="14" y="0" type="line"/>
      <point x="282" y="780" type="line"/>
    </contour>
    <contour>
      <point x="390" y="280" type="line" smooth="yes"/>
      <point x="405" y="329"/>
      <point x="408" y="391"/>
      <point x="342" y="394" type="curve" smooth="yes"/>
      <point x="271" y="397"/>
      <point x="220" y="337"/>
      <point x="188" y="282" type="curve"/>
      <point x="152" y="282" type="line"/>
      <point x="192" y="371"/>
      <point x="267" y="469"/>
      <point x="375" y="469" type="curve" smooth="yes"/>
      <point x="480" y="469"/>
      <point x="493" y="372"/>
      <point x="469" y="290" type="curve" smooth="yes"/>
      <point x="369" y="0" type="line"/>
      <point x="294" y="0" type="line"/>
    </contour>
    <contour>
      <point x="385" y="934" type="line"/>
      <point x="247" y="841" type="line"/>
      <point x="209" y="883" type="line"/>
      <point x="405" y="1020" type="line"/>
      <point x="513" y="878" type="line"/>
      <point x="456" y="841" type="line"/>
    </contour>
  </outline>
</glyph>
<glyph name="itilde" format="2">
  <advance width="244"/>
  <unicode hex="0129"/>
  <outline>
    <contour>
      <point x="184" y="459" type="line"/>
      <point x="266" y="460" type="line"/>
      <point x="105" y="0" type="line"/>
      <point x="31" y="0" type="line"/>
    </contour>
    <contour>
      <point x="105" y="570" type="line"/>
      <point x="134" y="606"/>
      <point x="175" y="651"/>
      <point x="227" y="648" type="curve" smooth="yes"/>
      <point x="266" y="646"/>
      <point x="289" y="600"/>
      <point x="328" y="603" type="curve" smooth="yes"/>
      <point x="356" y="605"/>
      <point x="380" y="632"/>
      <point x="399" y="649" type="curve"/>
      <point x="432" y="604" type="line"/>
      <point x="402" y="573"/>
      <point x="359" y="531"/>
      <point x="311" y="535" type="curve" smooth="yes"/>
      <point x="273" y="538"/>
      <point x="253" y="582"/>
      <point x="214" y="580" type="curve" smooth="yes"/>
      <point x="184" y="578"/>
      <point x="164" y="552"/>
      <point x="147" y="531" type="curve"/>
    </contour>
  </outline>
</glyph>
<glyph name="Imacron" format="2">
  <advance width="230"/>
  <unicode hex="012A"/>
  <outline>
    <contour>
      <point x="257" y="699" type="line"/>
      <point x="343" y="700" type="line"/>
      <point x="101" y="0" type="line"/>
      <point x="22" y="0" type="line"/>
    </contour>
    <contour>
      <point x="160" y="771" type="line"/>
      <point x="185" y="845" type="line"/>
      <point x="518" y="845" type="line"/>
      <point x="492" y="770" type="line"/>
    </contour>
  </outline>
</glyph>
<glyph name="Ibreve" format="2">
  <advance width="230"/>
  <unicode hex="012C"/>
  <outline>
    <contour>
      <point x="257" y="699" type="line"/>
      <point x="343" y="700" type="line"/>
      <point x="101" y="0" type="line"/>
      <point x="22" y="0" type="line"/>
    </contour>
    <contour>
      <point x="222" y="910" type="curve"/>
      <point x="289" y="909" type="line"/>
      <point x="286" y="869"/>
      <point x="294" y="837"/>
      <point x="341" y="836" type="curve" smooth="yes"/>
      <point x="392" y="835"/>
      <point x="425" y="871"/>
      <point x="452" y="909" type="curve"/>
      <point x="522" y="908" type="line"/>
      <point x="484" y="833"/>
      <point x="419" y="771"/>
      <point x="330" y="771" type="curve" smooth="yes"/>
      <point x="243" y="771"/>
      <point x="211" y="832"/>
    </contour>
  </outline>
</glyph>
<glyph name="ibreve" format="2">
  <advance width="244"/>
  <unicode hex="012D"/>
  <outline>
    <contour>
      <point x="184" y="459" type="line"/>
      <point x="266" y="460" type="line"/>
      <point x="105" y="0" type="line"/>
      <point x="31" y="0" type="line"/>
    </contour>
    <contour>
      <point x="146" y="670" type="curve"/>
      <point x="213" y="669" type="line"/>
      <point x="210" y="629"/>
      <point x="218" y="597"/>
      <point x="265" y="596" type="curve" smooth="yes"/>
      <point x="316" y="595"/>
      <point x="349" y="631"/>
      <point x="376" y="669" type="curve"/>
      <point x="446" y="668" type="line"/>
      <point x="408" y="593"/>
      <point x="343" y="531"/>
      <point x="254" y="531" type="curve" smooth="yes"/>
      <point x="167" y="531"/>
      <point x="135" y="592"/>
    </contour>
  </outline>
</glyph>
<glyph name="IJ" format="2">
  <advance width="461"/>
  <unicode hex="0132"/>
  <outline>
    <contour>
      <point x="78" y="-105" type="line"/>
      <point x="94" y="-126"/>
      <point x="110" y="-142"/>
      <point x="139" y="-140" type="curve" smooth="yes"/>
      <point x="187" y="-136"/>
      <point x="220" y="-90"/>
      <point x="237" y="-50" type="curve"/>
      <point x="495" y="700" type="line"/>
      <point x="573" y="700" type="line"/>
      <point x="314" y="-61" type="line" smooth="yes"/>
      <point x="282" y="-145"/>
      <point x="214" y="-221"/>
      <point x="118" y="-219" type="curve" smooth="yes"/>
      <point x="75" y="-218"/>
      <point x="45" y="-199"/>
      <point x="17" y="-168" type="curve"/>
    </contour>
    <contour>
      <point x="257" y="699" type="line"/>
      <point x="343" y="700" type="line"/>
      <point x="101" y="0" type="line"/>
      <point x="22" y="0" type="line"/>
    </contour>
  </outline>
</glyph>
<glyph name="uni0146" format="2">
  <advance width="493"/>
  <unicode hex="0146"/>
  <outline>
    <contour>
      <point x="251" y="460" type="line"/>
      <point x="92" y="0" type="line"/>
      <point x="13" y="0" type="line"/>
      <point x="173" y="460" type="line"/>
    </contour>
    <contour>
      <point x="390" y="280" type="line" smooth="yes"/>
      <point x="405" y="329"/>
      <point x="409" y="391"/>
      <point x="342" y="394" type="curve" smooth="yes"/>
      <point x="271" y="397"/>
      <point x="220" y="337"/>
      <point x="188" y="282" type="curve"/>
      <point x="152" y="282" type="line"/>
      <point x="192" y="371"/>
      <point x="267" y="469"/>
      <point x="375" y="469" type="curve" smooth="yes"/>
      <point x="480" y="469"/>
      <point x="493" y="372"/>
      <point x="469" y="290" type="curve" smooth="yes"/>
      <point x="369" y="0" type="line"/>
      <point x="294" y="0" type="line"/>
    </contour>
    <contour>
      <point x="172" y="-62" type="line"/>
      <point x="244" y="-94" type="line"/>
      <point x="55" y="-338" type="line"/>
      <point x="2" y="-317" type="line"/>
    </contour>
  </outline>
</glyph>
<glyph name="Eng" format="2">
  <advance width="775"/>
  <unicode hex="014A"/>
  <outline>
    <contour>
      <point x="398" y="-220" type="curve" smooth="yes"/>
      <point x="358" y="-220"/>
      <point x="335" y="-207"/>
      <point x="324" y="-180" type="curve"/>
      <point x="390" y="-114" type="line"/>
      <point x="395" y="-130"/>
      <point x="409" y="-140"/>
      <point x="430" y="-140" type="curve" smooth="yes"/>
      <point x="464" y="-140"/>
      <point x="487" y="-114"/>
      <point x="508" y="-50" type="curve" smooth="yes"/>
      <point x="541" y="49" type="line"/>
      <point x="249" y="521" type="line"/>
      <point x="75" y="0" type="line"/>
      <point x="-10" y="0" type="line"/>
      <point x="236" y="735" type="line"/>
      <point x="580" y="179" type="line"/>
      <point x="754" y="700" type="line"/>
      <point x="839" y="700" type="line"/>
      <point x="585" y="-60" type="line" smooth="yes"/>
      <point x="551" y="-161"/>
      <point x="482" y="-220"/>
    </contour>
  </outline>
</glyph>
<glyph name="OE" format="2">
  <advance width="926"/>
  <unicode hex="0152"/>
  <outline>
    <contour>
      <point x="591" y="341" type="line"/>
      <point x="618" y="420" type="line"/>
      <point x="934" y="420" type="line"/>
      <point x="907" y="340" type="line"/>
    </contour>
    <contour>
      <point x="656" y="669" type="line"/>
      <point x="742" y="670" type="line"/>
      <point x="520" y="30" type="line"/>
      <point x="441" y="31" type="line"/>
    </contour>
    <contour>
      <point x="834" y="79" type="line"/>
      <point x="808" y="0" type="line"/>
      <point x="319" y="0" type="line" smooth="yes"/>
      <point x="123" y="7"/>
      <point x="44" y="175"/>
      <point x="101" y="350" type="curve" smooth="yes"/>
      <point x="163" y="541"/>
      <point x="341" y="694"/>
      <point x="545" y="700" type="curve" smooth="yes"/>
      <point x="1048" y="700" type="line"/>
      <point x="1019" y="620" type="line"/>
      <point x="698" y="620" type="line"/>
      <point x="682" y="620" type="line"/>
      <point x="531" y="620" type="line" smooth="yes"/>
      <point x="372" y="614"/>
      <point x="236" y="496"/>
      <point x="184" y="350" type="curve" smooth="yes"/>
      <point x="137" y="220"/>
      <point x="182" y="87"/>
      <point x="334" y="80" type="curve" smooth="yes"/>
      <point x="483" y="80" type="line"/>
      <point x="505" y="80" type="line"/>
    </contour>
  </outline>
</glyph>
<glyph name="Umacron" format="2">
  <advance width="589"/>
  <unicode hex="016A"/>
  <outline>
    <contour>
      <point x="254" y="700" type="line"/>
      <point x="339" y="700" type="line"/>
      <point x="175" y="230" type="line" smooth="yes"/>
      <point x="152" y="156"/>
      <point x="162" y="73"/>
      <point x="256" y="71" type="curve" smooth="yes"/>
      <point x="352" y="68"/>
      <point x="426" y="147"/>
      <point x="459" y="230" type="curve" smooth="yes"/>
      <point x="621" y="700" type="line"/>
      <point x="707" y="700" type="line"/>
      <point x="547" y="230" type="line" smooth="yes"/>
      <point x="501" y="104"/>
      <point x="388" y="-9"/>
      <point x="246" y="-9" type="curve" smooth="yes"/>
      <point x="109" y="-9"/>
      <point x="58" y="110"/>
      <point x="93" y="230" type="curve" smooth="yes"/>
    </contour>
    <contour>
      <point x="340" y="771" type="line"/>
      <point x="363" y="845" type="line"/>
      <point x="698" y="845" type="line"/>
      <point x="673" y="771" type="line"/>
    </contour>
  </outline>
</glyph>
<glyph name="ubreve" format="2">
  <advance width="493"/>
  <unicode hex="016D"/>
  <outline>
    <contour>
      <point x="290" y="0" type="line"/>
      <point x="449" y="460" type="line"/>
      <point x="530" y="460" type="line"/>
      <point x="371" y="0" type="line"/>
    </contour>
    <contour>
      <point x="153" y="180" type="line" smooth="yes"/>
      <point x="138" y="132"/>
      <point x="132" y="70"/>
      <point x="198" y="67" type="curve" smooth="yes"/>
      <point x="269" y="63"/>
      <point x="320" y="123"/>
      <point x="352" y="178" type="curve"/>
      <point x="381" y="177" type="line"/>
      <point x="344" y="89"/>
      <point x="276" y="-8"/>
      <point x="170" y="-9" type="curve" smooth="yes"/>
      <point x="65" y="-10"/>
      <point x="49" y="87"/>
      <point x="73" y="170" type="curve"/>
      <point x="173" y="459" type="line"/>
      <point x="248" y="459" type="line"/>
    </contour>
    <contour>
      <point x="270" y="670" type="curve"/>
      <point x="337" y="669" type="line"/>
      <point x="333" y="630"/>
      <point x="340" y="597"/>
      <point x="387" y="596" type="curve" smooth="yes"/>
      <point x="438" y="595"/>
      <point x="472" y="631"/>
      <point x="499" y="669" type="curve"/>
      <point x="571" y="667" type="line"/>
      <point x="535" y="591"/>
      <point x="471" y="531"/>
      <point x="382" y="531" type="curve" smooth="yes"/>
      <point x="295" y="531"/>
      <point x="260" y="591"/>
    </contour>
  </outline>
</glyph>
<glyph name="uring" format="2">
  <advance width="493"/>
  <unicode hex="016F"/>
  <outline>
    <contour>
      <point x="291" y="0" type="line"/>
      <point x="450" y="460" type="line"/>
      <point x="529" y="460" type="line"/>
      <point x="370" y="0" type="line"/>
    </contour>
    <contour>
      <point x="153" y="180" type="line" smooth="yes"/>
      <point x="138" y="131"/>
      <point x="133" y="69"/>
      <point x="200" y="66" type="curve" smooth="yes"/>
      <point x="271" y="63"/>
      <point x="322" y="123"/>
      <point x="354" y="178" type="curve"/>
      <point x="381" y="178" type="line"/>
      <point x="343" y="90"/>
      <point x="274" y="-9"/>
      <point x="167" y="-9" type="curve" smooth="yes"/>
      <point x="62" y="-9"/>
      <point x="49" y="88"/>
      <point x="73" y="170" type="curve" smooth="yes"/>
      <point x="174" y="460" type="line"/>
      <point x="248" y="459" type="line"/>
    </contour>
    <contour>
      <point x="310" y="632" type="curve" smooth="yes"/>
      <point x="325" y="682"/>
      <point x="384" y="730"/>
      <point x="438" y="729" type="curve" smooth="yes"/>
      <point x="492" y="728"/>
      <point x="520" y="677"/>
      <point x="505" y="628" type="curve" smooth="yes"/>
      <point x="490" y="578"/>
      <point x="432" y="530"/>
      <point x="378" y="531" type="curve" smooth="yes"/>
      <point x="324" y="532"/>
      <point x="295" y="583"/>
    </contour>
    <contour>
      <point x="359" y="629" type="curve" smooth="yes"/>
      <point x="353" y="609"/>
      <point x="363" y="581"/>
      <point x="386" y="578" type="curve" smooth="yes"/>
      <point x="410" y="574"/>
      <point x="450" y="609"/>
      <point x="456" y="631" type="curve" smooth="yes"/>
      <point x="462" y="651"/>
      <point x="452" y="679"/>
      <point x="429" y="682" type="curve" smooth="yes"/>
      <point x="405" y="686"/>
      <point x="365" y="651"/>
    </contour>
  </outline>
</glyph>
<glyph name="wcircumflex" format="2">
  <advance width="639"/>
  <unicode hex="0175"/>
  <outline>
    <contour>
      <point x="109" y="460" type="line"/>
      <point x="192" y="460" type="line"/>
      <point x="196" y="168" type="line"/>
      <point x="431" y="501" type="line"/>
      <point x="439" y="166" type="line"/>
      <point x="649" y="459" type="line"/>
      <point x="745" y="459" type="line"/>
      <point x="380" y="-41" type="line"/>
      <point x="367" y="293" type="line"/>
      <point x="126" y="-41" type="line"/>
    </contour>
    <contour>
      <point x="491" y="648" type="line"/>
      <point x="353" y="556" type="line"/>
      <point x="312" y="599" type="line"/>
      <point x="506" y="735" type="line"/>
      <point x="617" y="592" type="line"/>
      <point x="561" y="555" type="line"/>
    </contour>
  </outline>
</glyph>
<glyph name="Ycircumflex" format="2">
  <advance width="527"/>
  <unicode hex="0176"/>
  <outline>
    <contour>
      <point x="613" y="699" type="line"/>
      <point x="716" y="699" type="line"/>
      <point x="353" y="295" type="line"/>
      <point x="251" y="0" type="line"/>
      <point x="166" y="0" type="line"/>
      <point x="274" y="310" type="line"/>
      <point x="192" y="700" type="line"/>
      <point x="277" y="700" type="line"/>
      <point x="334" y="381" type="line"/>
    </contour>
    <contour>
      <point x="513" y="863" type="line"/>
      <point x="375" y="771" type="line"/>
      <point x="334" y="814" type="line"/>
      <point x="528" y="950" type="line"/>
      <point x="639" y="807" type="line"/>
      <point x="583" y="770" type="line"/>
    </contour>
  </outline>
</glyph>
<glyph name="florin" format="2">
  <advance width="600"/>
  <unicode hex="0192"/>
  <outline>
    <contour>
      <point x="114" y="-200" type="curve" smooth="yes"/>
      <point x="84" y="-199"/>
      <point x="59" y="-188"/>
      <point x="25" y="-158" type="curve"/>
      <point x="78" y="-96" type="line"/>
      <point x="99" y="-116"/>
      <point x="110" y="-122"/>
      <point x="122" y="-122" type="curve" smooth="yes"/>
      <point x="152" y="-122"/>
      <point x="183.709" y="-83.5931"/>
      <point x="204" y="-32" type="curve" smooth="yes"/>
      <point x="368" y="385" type="line"/>
      <point x="306" y="385" type="line"/>
      <point x="332" y="460" type="line"/>
      <point x="396" y="460" type="line"/>
      <point x="461" y="626" type="line" smooth="yes"/>
      <point x="496.174" y="715.829"/>
      <point x="557" y="791"/>
      <point x="632" y="789" type="curve" smooth="yes"/>
      <point x="662" y="788"/>
      <point x="687" y="777"/>
      <point x="721" y="747" type="curve"/>
      <point x="668" y="685" type="line"/>
      <point x="647" y="705"/>
      <point x="636" y="711"/>
      <point x="624" y="711" type="curve" smooth="yes"/>
      <point x="594" y="711"/>
      <point x="562.87" y="670.593"/>
      <point x="542" y="620" type="curve" smooth="yes"/>
      <point x="476" y="460" type="line"/>
      <point x="552" y="460" type="line"/>
      <point x="526" y="385" type="line"/>
      <point x="448" y="385" type="line"/>
      <point x="285" y="-38" type="line" smooth="yes"/>
      <point x="250.001" y="-128.825"/>
      <point x="188" y="-202"/>
    </contour>
  </outline>
</glyph>
<glyph name="uni0219" format="2">
  <advance width="379"/>
  <unicode hex="0219"/>
  <outline>
    <contour>
      <point x="84" y="160" type="line"/>
      <point x="87" y="110"/>
      <point x="103" y="67"/>
      <point x="160" y="66" type="curve" smooth="yes"/>
      <point x="198" y="65"/>
      <point x="246" y="86"/>
      <point x="260" y="124" type="curve" smooth="yes"/>
      <point x="278" y="172"/>
      <point x="233" y="196"/>
      <point x="198" y="215" type="curve" smooth="yes"/>
      <point x="145" y="244"/>
      <point x="93" y="282"/>
      <point x="114" y="350" type="curve" smooth="yes"/>
      <point x="136" y="422"/>
      <point x="220" y="468"/>
      <point x="292" y="469" type="curve" smooth="yes"/>
      <point x="357" y="470"/>
      <point x="404" y="439"/>
      <point x="424" y="378" type="curve"/>
      <point x="353" y="340" type="line"/>
      <point x="335" y="368"/>
      <point x="314" y="393"/>
      <point x="277" y="393" type="curve" smooth="yes"/>
      <point x="246" y="393"/>
      <point x="199" y="376"/>
      <point x="189" y="343" type="curve" smooth="yes"/>
      <point x="176" y="300"/>
      <point x="237" y="281"/>
      <point x="265" y="266" type="curve" smooth="yes"/>
      <point x="317" y="238"/>
      <point x="360" y="192"/>
      <point x="343" y="129" type="curve" smooth="yes"/>
      <point x="320" y="42"/>
      <point x="227" y="-11"/>
      <point x="141" y="-9" type="curve" smooth="yes"/>
      <point x="59" y="-8"/>
      <point x="14" y="46"/>
      <point x="10" y="124" type="curve"/>
    </contour>
    <contour>
      <point x="115" y="-72" type="line"/>
      <point x="187" y="-104" type="line"/>
      <point x="-2" y="-348" type="line"/>
      <point x="-55" y="-327" type="line"/>
    </contour>
  </outline>
</glyph>
<glyph name="uni021B" format="2">
  <advance width="225"/>
  <unicode hex="021B"/>
  <outline>
    <contour>
      <point x="110" y="460" type="line"/>
      <point x="329" y="460" type="line"/>
      <point x="302" y="385" type="line"/>
      <point x="82" y="385" type="line"/>
    </contour>
    <contour>
      <point x="230" y="619" type="line"/>
      <point x="311" y="620" type="line"/>
      <point x="96" y="0" type="line"/>
      <point x="22" y="0" type="line"/>
    </contour>
    <contour>
      <point x="40.0176" y="-60" type="line"/>
      <point x="112.018" y="-92" type="line"/>
      <point x="-76.9824" y="-336" type="line"/>
      <point x="-129.982" y="-315" type="line"/>
    </contour>
  </outline>
</glyph>
<glyph name="breve" format="2">
  <advance width="513"/>
  <unicode hex="02D8"/>
  <outline>
    <contour>
      <point x="334" y="850" type="curve"/>
      <point x="401" y="850" type="line"/>
      <point x="399" y="810"/>
      <point x="409" y="777"/>
      <point x="456" y="776" type="curve" smooth="yes"/>
      <point x="507" y="775"/>
      <point x="539" y="810"/>
      <point x="564" y="849" type="curve"/>
      <point x="634" y="848" type="line"/>
      <point x="599" y="772"/>
      <point x="535" y="711"/>
      <point x="446" y="711" type="curve" smooth="yes"/>
      <point x="360" y="711"/>
      <point x="325" y="771"/>
    </contour>
  </outline>
</glyph>
<glyph name="hungarumlaut" format="2">
  <unicode hex="02DD"/>
  <outline>
    <contour>
      <point x="58" y="506" type="line"/>
      <point x="0" y="528" type="line"/>
      <point x="154" y="722" type="line"/>
      <point x="242" y="697" type="line"/>
    </contour>
    <contour>
      <point x="222" y="506" type="line"/>
      <point x="165" y="528" type="line"/>
      <point x="318" y="722" type="line"/>
      <point x="408" y="697" type="line"/>
    </contour>
  </outline>
</glyph>
<glyph name="tildecomb" format="2">
  <unicode hex="0303"/>
  <outline>
    <contour>
      <point x="250" y="578" type="curve"/>
      <point x="209" y="625" type="line"/>
      <point x="235" y="674"/>
      <point x="286" y="707"/>
      <point x="331" y="707" type="curve" smooth="yes"/>
      <point x="386" y="707"/>
      <point x="395" y="660"/>
      <point x="439" y="660" type="curve" smooth="yes"/>
      <point x="458" y="660"/>
      <point x="490" y="676"/>
      <point x="521" y="708" type="curve"/>
      <point x="553" y="655" type="line"/>
      <point x="525" y="618"/>
      <point x="482" y="582"/>
      <point x="432" y="582" type="curve" smooth="yes"/>
      <point x="387" y="582"/>
      <point x="359" y="629"/>
      <point x="324" y="629" type="curve" smooth="yes"/>
      <point x="283" y="629"/>
      <point x="255" y="593"/>
    </contour>
  </outline>
</glyph>
<glyph name="uni0304" format="2">
  <unicode hex="0304"/>
  <outline>
    <contour>
      <point x="201" y="600" type="line"/>
      <point x="226" y="675" type="line"/>
      <point x="576" y="675" type="line"/>
      <point x="551" y="600" type="line"/>
    </contour>
  </outline>
</glyph>
<glyph name="uni0308" format="2">
  <unicode hex="0308"/>
  <outline>
    <contour>
      <point x="476" y="605" type="curve" smooth="yes"/>
      <point x="446" y="605"/>
      <point x="421" y="630"/>
      <point x="421" y="660" type="curve" smooth="yes"/>
      <point x="421" y="690"/>
      <point x="446" y="715"/>
      <point x="476" y="715" type="curve" smooth="yes"/>
      <point x="506" y="715"/>
      <point x="531" y="690"/>
      <point x="531" y="660" type="curve" smooth="yes"/>
      <point x="531" y="630"/>
      <point x="506" y="605"/>
    </contour>
    <contour>
      <point x="276" y="605" type="curve" smooth="yes"/>
      <point x="246" y="605"/>
      <point x="221" y="630"/>
      <point x="221" y="660" type="curve" smooth="yes"/>
      <point x="221" y="690"/>
      <point x="246" y="715"/>
      <point x="276" y="715" type="curve" smooth="yes"/>
      <point x="306" y="715"/>
      <point x="331" y="690"/>
      <point x="331" y="660" type="curve" smooth="yes"/>
      <point x="331" y="630"/>
      <point x="306" y="605"/>
    </contour>
  </outline>
</glyph>
<glyph name="uni030C" format="2">
  <unicode hex="030C"/>
  <outline>
    <contour>
      <point x="334" y="547" type="line"/>
      <point x="227" y="678" type="line"/>
      <point x="283" y="726" type="line"/>
      <point x="366" y="625" type="line"/>
      <point x="332" y="625" type="line"/>
      <point x="493" y="729" type="line"/>
      <point x="529" y="678" type="line"/>
    </contour>
  </outline>
</glyph>
<glyph name="uni0312" format="2">
  <unicode hex="0312"/>
  <outline>
    <contour>
      <point x="247" y="500" type="line"/>
      <point x="177" y="530" type="line"/>
      <point x="371" y="780" type="line"/>
      <point x="422" y="759" type="line"/>
    </contour>
  </outline>
</glyph>
<glyph name="uni0326" format="2">
  <unicode hex="0326"/>
  <outline>
    <contour>
      <point x="-25" y="-229" type="line"/>
      <point x="-66" y="-197" type="line"/>
      <point x="92" y="-17" type="line"/>
      <point x="146" y="-59" type="line"/>
    </contour>
  </outline>
</glyph>
<glyph name="uni0327" format="2">
  <unicode hex="0327"/>
  <outline>
    <contour>
      <point x="15" y="-220" type="curve" smooth="yes"/>
      <point x="-22" y="-220"/>
      <point x="-43" y="-212"/>
      <point x="-64" y="-192" type="curve"/>
      <point x="-26" y="-147" type="line"/>
      <point x="-3" y="-163"/>
      <point x="7" y="-166"/>
      <point x="33" y="-166" type="curve" smooth="yes"/>
      <point x="65" y="-166"/>
      <point x="88" y="-152"/>
      <point x="97" y="-126" type="curve" smooth="yes"/>
      <point x="105" y="-102"/>
      <point x="93" y="-90"/>
      <point x="59" y="-90" type="curve" smooth="yes"/>
      <point x="43" y="-90"/>
      <point x="10" y="-91"/>
      <point x="-4" y="-93" type="curve"/>
      <point x="127" y="60" type="line"/>
      <point x="198" y="60" type="line"/>
      <point x="79" y="-72" type="line"/>
      <point x="55" y="-72" type="line"/>
      <point x="72" y="-52"/>
      <point x="82" y="-47"/>
      <point x="107" y="-47" type="curve" smooth="yes"/>
      <point x="150" y="-47"/>
      <point x="176.301" y="-87.0986"/>
      <point x="163" y="-127" type="curve" smooth="yes"/>
      <point x="145" y="-181"/>
      <point x="97" y="-220"/>
    </contour>
  </outline>
</glyph>
<glyph name="uni03A9" format="2">
  <advance width="600"/>
  <unicode hex="03A9"/>
  <outline>
    <contour>
      <point x="-24" y="0" type="line"/>
      <point x="169" y="0" type="line"/>
      <point x="195" y="78" type="line"/>
      <point x="153" y="123"/>
      <point x="143" y="224"/>
      <point x="172" y="311" type="curve" smooth="yes"/>
      <point x="206" y="413"/>
      <point x="274" y="466"/>
      <point x="366" y="466" type="curve" smooth="yes"/>
      <point x="458" y="466"/>
      <point x="488" y="413"/>
      <point x="454" y="311" type="curve" smooth="yes"/>
      <point x="425" y="223"/>
      <point x="348" y="123"/>
      <point x="276" y="78" type="curve"/>
      <point x="250" y="0" type="line"/>
      <point x="443" y="0" type="line"/>
      <point x="466" y="68" type="line"/>
      <point x="379" y="68" type="line"/>
      <point x="455" y="140"/>
      <point x="519" y="235"/>
      <point x="546" y="317" type="curve" smooth="yes"/>
      <point x="592" y="455"/>
      <point x="529" y="559"/>
      <point x="397" y="559" type="curve" smooth="yes"/>
      <point x="265" y="559"/>
      <point x="131" y="455"/>
      <point x="85" y="317" type="curve" smooth="yes"/>
      <point x="58" y="235"/>
      <point x="58" y="140"/>
      <point x="86" y="68" type="curve"/>
      <point x="-1" y="68" type="line"/>
    </contour>
  </outline>
</glyph>
<glyph name="uni0403" format="2">
  <advance width="409"/>
  <unicode hex="0403"/>
  <outline>
    <contour>
      <point x="254" y="699" type="line"/>
      <point x="588" y="700" type="line"/>
      <point x="559" y="620" type="line"/>
      <point x="316" y="620" type="line"/>
      <point x="101" y="0" type="line"/>
      <point x="22" y="0" type="line"/>
    </contour>
    <contour>
      <point x="635.836" y="914" type="line"/>
      <point x="421.836" y="770" type="line"/>
      <point x="383.836" y="801" type="line"/>
      <point x="571.836" y="957" type="line"/>
    </contour>
  </outline>
</glyph>
<glyph name="uni040C" format="2">
  <advance width="531"/>
  <unicode hex="040C"/>
  <outline>
    <contour>
      <point x="255" y="699" type="line"/>
      <point x="345" y="700" type="line"/>
      <point x="101" y="0" type="line"/>
      <point x="22" y="0" type="line"/>
    </contour>
    <contour>
      <point x="592" y="699" type="line"/>
      <point x="706" y="699" type="line"/>
      <point x="299" y="365" type="line"/>
      <point x="469" y="0" type="line"/>
      <point x="378" y="0" type="line"/>
      <point x="203" y="377" type="line"/>
    </contour>
    <contour>
      <point x="695" y="913" type="line"/>
      <point x="479" y="771" type="line"/>
      <point x="438" y="805" type="line"/>
      <point x="630" y="959" type="line"/>
    </contour>
  </outline>
</glyph>
<glyph name="uni0413" format="2">
  <advance width="409"/>
  <unicode hex="0413"/>
  <outline>
    <contour>
      <point x="254" y="699" type="line"/>
      <point x="588" y="700" type="line"/>
      <point x="559" y="620" type="line"/>
      <point x="316" y="620" type="line"/>
      <point x="101" y="0" type="line"/>
      <point x="22" y="0" type="line"/>
    </contour>
  </outline>
</glyph>
<glyph name="uni0417" format="2">
  <advance width="570"/>
  <unicode hex="0417"/>
  <outline>
    <contour>
      <point x="330" y="346" type="curve"/>
      <point x="345" y="399" type="line"/>
      <point x="426" y="409"/>
      <point x="518" y="438"/>
      <point x="550" y="521" type="curve" smooth="yes"/>
      <point x="575" y="586"/>
      <point x="536" y="631"/>
      <point x="470" y="632" type="curve" smooth="yes"/>
      <point x="393" y="634"/>
      <point x="331" y="589"/>
      <point x="291" y="527" type="curve"/>
      <point x="209" y="528" type="line"/>
      <point x="256" y="637"/>
      <point x="356" y="710"/>
      <point x="477" y="709" type="curve" smooth="yes"/>
      <point x="582" y="708"/>
      <point x="669" y="633"/>
      <point x="636" y="523" type="curve" smooth="yes"/>
      <point x="597" y="394"/>
      <point x="449" y="353"/>
    </contour>
    <contour>
      <point x="246" y="-9" type="curve" smooth="yes"/>
      <point x="123" y="-9"/>
      <point x="41" y="59"/>
      <point x="62" y="185" type="curve"/>
      <point x="144" y="184" type="line"/>
      <point x="137" y="107"/>
      <point x="178" y="71"/>
      <point x="255" y="71" type="curve" smooth="yes"/>
      <point x="338" y="71"/>
      <point x="427" y="113"/>
      <point x="457" y="195" type="curve" smooth="yes"/>
      <point x="493" y="293"/>
      <point x="399" y="319"/>
      <point x="323" y="326" type="curve"/>
      <point x="340" y="381" type="line"/>
      <point x="456" y="376"/>
      <point x="581" y="325"/>
      <point x="539" y="184" type="curve" smooth="yes"/>
      <point x="501" y="59"/>
      <point x="370" y="-9"/>
    </contour>
  </outline>
</glyph>
<glyph name="uni0418" format="2">
  <advance width="729"/>
  <unicode hex="0418"/>
  <outline>
    <contour>
      <point x="802" y="599" type="line"/>
      <point x="-1" y="-47" type="line"/>
      <point x="58" y="101" type="line"/>
      <point x="860" y="748" type="line"/>
    </contour>
    <contour>
      <point x="344" y="700" type="line"/>
      <point x="127" y="68" type="line"/>
      <point x="-1" y="-47" type="line"/>
      <point x="258" y="700" type="line"/>
    </contour>
    <contour>
      <point x="860" y="748" type="line"/>
      <point x="601" y="0" type="line"/>
      <point x="516" y="0" type="line"/>
      <point x="732" y="632" type="line"/>
    </contour>
  </outline>
</glyph>
<glyph name="uni041A" format="2">
  <advance width="531"/>
  <unicode hex="041A"/>
  <outline>
    <contour>
      <point x="255" y="699" type="line"/>
      <point x="345" y="700" type="line"/>
      <point x="101" y="0" type="line"/>
      <point x="22" y="0" type="line"/>
    </contour>
    <contour>
      <point x="592" y="699" type="line"/>
      <point x="706" y="699" type="line"/>
      <point x="299" y="365" type="line"/>
      <point x="469" y="0" type="line"/>
      <point x="378" y="0" type="line"/>
      <point x="203" y="377" type="line"/>
    </contour>
  </outline>
</glyph>
<glyph name="uni041C" format="2">
  <advance width="762"/>
  <unicode hex="041C"/>
  <outline>
    <contour>
      <point x="277" y="470" type="line"/>
      <point x="66" y="0" type="line"/>
      <point x="-22" y="0" type="line"/>
      <point x="313" y="738" type="line"/>
      <point x="401" y="233" type="line"/>
      <point x="848" y="747" type="line"/>
      <point x="671" y="0" type="line"/>
      <point x="587" y="0" type="line"/>
      <point x="699" y="459" type="line"/>
      <point x="351" y="61" type="line"/>
    </contour>
  </outline>
</glyph>
<glyph name="uni0420" format="2">
  <advance width="515"/>
  <unicode hex="0420"/>
  <outline>
    <contour>
      <point x="255" y="699" type="line"/>
      <point x="345" y="700" type="line"/>
      <point x="101" y="0" type="line"/>
      <point x="22" y="0" type="line"/>
    </contour>
    <contour>
      <point x="273" y="620" type="line"/>
      <point x="302" y="700" type="line"/>
      <point x="430" y="700" type="line" smooth="yes"/>
      <point x="549" y="695"/>
      <point x="631" y="610"/>
      <point x="594" y="489" type="curve" smooth="yes"/>
      <point x="556" y="364"/>
      <point x="431" y="285"/>
      <point x="304" y="280" type="curve" smooth="yes"/>
      <point x="157" y="280" type="line"/>
      <point x="186" y="360" type="line"/>
      <point x="314" y="360" type="line" smooth="yes"/>
      <point x="397" y="364"/>
      <point x="479" y="409"/>
      <point x="510" y="490" type="curve" smooth="yes"/>
      <point x="539" y="566"/>
      <point x="496" y="614"/>
      <point x="420" y="619" type="curve"/>
    </contour>
  </outline>
</glyph>
<glyph name="uni0424" format="2">
  <advance width="736"/>
  <unicode hex="0424"/>
  <outline>
    <contour>
      <point x="508" y="699" type="line"/>
      <point x="598" y="700" type="line"/>
      <point x="355" y="0" type="line"/>
      <point x="275" y="0" type="line"/>
    </contour>
    <contour>
      <point x="683" y="350" type="curve" smooth="yes"/>
      <point x="727" y="466"/>
      <point x="645" y="530"/>
      <point x="535" y="534" type="curve" smooth="yes"/>
      <point x="476" y="535" type="line" smooth="yes"/>
      <point x="354" y="531"/>
      <point x="229" y="470"/>
      <point x="184" y="350" type="curve" smooth="yes"/>
      <point x="140" y="234"/>
      <point x="222" y="170"/>
      <point x="332" y="166" type="curve" smooth="yes"/>
      <point x="391" y="165" type="line" smooth="yes"/>
      <point x="513" y="169"/>
      <point x="638" y="230"/>
    </contour>
    <contour>
      <point x="767" y="350" type="curve" smooth="yes"/>
      <point x="715" y="184"/>
      <point x="548" y="85"/>
      <point x="380" y="80" type="curve" smooth="yes"/>
      <point x="321" y="80" type="line" smooth="yes"/>
      <point x="166" y="84"/>
      <point x="50" y="189"/>
      <point x="100" y="350" type="curve" smooth="yes"/>
      <point x="152" y="516"/>
      <point x="319" y="615"/>
      <point x="487" y="620" type="curve" smooth="yes"/>
      <point x="546" y="620" type="line" smooth="yes"/>
      <point x="701" y="616"/>
      <point x="817" y="511"/>
    </contour>
  </outline>
</glyph>
<glyph name="uni042D" format="2">
  <advance width="644"/>
  <unicode hex="042D"/>
  <outline>
    <contour>
      <point x="177" y="311" type="line"/>
      <point x="202" y="390" type="line"/>
      <point x="606" y="390" type="line"/>
      <point x="579" y="311" type="line"/>
    </contour>
    <contour>
      <point x="585" y="350" type="curve" smooth="yes"/>
      <point x="629" y="469"/>
      <point x="596" y="621"/>
      <point x="446" y="624" type="curve" smooth="yes"/>
      <point x="352" y="626"/>
      <point x="265" y="576"/>
      <point x="191" y="523" type="curve"/>
      <point x="224" y="634" type="line"/>
      <point x="294" y="680"/>
      <point x="371" y="711"/>
      <point x="456" y="710" type="curve" smooth="yes"/>
      <point x="653" y="708"/>
      <point x="729" y="519"/>
      <point x="675" y="350" type="curve" smooth="yes"/>
      <point x="616" y="162"/>
      <point x="433" y="-8"/>
      <point x="229" y="-10" type="curve" smooth="yes"/>
      <point x="152" y="-11"/>
      <point x="89" y="14"/>
      <point x="34" y="68" type="curve"/>
      <point x="68" y="179" type="line"/>
      <point x="104" y="111"/>
      <point x="162" y="76"/>
      <point x="240" y="76" type="curve" smooth="yes"/>
      <point x="394" y="77"/>
      <point x="534" y="212"/>
    </contour>
  </outline>
</glyph>
<glyph name="uni0437" format="2">
  <advance width="447"/>
  <unicode hex="0437"/>
  <outline>
    <contour>
      <point x="251" y="231" type="curve"/>
      <point x="265" y="279" type="line"/>
      <point x="304" y="285"/>
      <point x="360" y="297"/>
      <point x="373" y="342" type="curve" smooth="yes"/>
      <point x="382" y="374"/>
      <point x="358" y="395"/>
      <point x="328" y="396" type="curve" smooth="yes"/>
      <point x="281" y="398"/>
      <point x="248" y="362"/>
      <point x="223" y="327" type="curve"/>
      <point x="141" y="329" type="line"/>
      <point x="176" y="403"/>
      <point x="243" y="469"/>
      <point x="331" y="469" type="curve" smooth="yes"/>
      <point x="406" y="469"/>
      <point x="474" y="411"/>
      <point x="449" y="332" type="curve" smooth="yes"/>
      <point x="423" y="249"/>
      <point x="326" y="236"/>
    </contour>
    <contour>
      <point x="184" y="-9" type="curve" smooth="yes"/>
      <point x="88" y="-9"/>
      <point x="45" y="56"/>
      <point x="49" y="145" type="curve"/>
      <point x="125" y="145" type="line"/>
      <point x="127" y="97"/>
      <point x="138" y="63"/>
      <point x="192" y="61" type="curve" smooth="yes"/>
      <point x="240" y="59"/>
      <point x="305" y="88"/>
      <point x="321" y="136" type="curve" smooth="yes"/>
      <point x="341" y="193"/>
      <point x="287" y="203"/>
      <point x="244" y="210" type="curve"/>
      <point x="260" y="260" type="line"/>
      <point x="331" y="254"/>
      <point x="426" y="226"/>
      <point x="400" y="134" type="curve" smooth="yes"/>
      <point x="375" y="46"/>
      <point x="270" y="-9"/>
    </contour>
  </outline>
</glyph>
<glyph name="uni043C" format="2">
  <advance width="571"/>
  <unicode hex="043C"/>
  <outline>
    <contour>
      <point x="426" y="0" type="line"/>
      <point x="481" y="374" type="line"/>
      <point x="572" y="505" type="line"/>
      <point x="512" y="0" type="line"/>
    </contour>
    <contour>
      <point x="225" y="78" type="line"/>
      <point x="572" y="505" type="line"/>
      <point x="523" y="327" type="line"/>
      <point x="220" y="-35" type="line"/>
    </contour>
    <contour>
      <point x="220" y="-35" type="line"/>
      <point x="168" y="344" type="line"/>
      <point x="234" y="503" type="line"/>
      <point x="282" y="60" type="line"/>
    </contour>
    <contour>
      <point x="-56" y="0" type="line"/>
      <point x="234" y="503" type="line"/>
      <point x="230" y="355" type="line"/>
      <point x="38" y="0" type="line"/>
    </contour>
  </outline>
</glyph>
<glyph name="uni043D" format="2">
  <advance width="531"/>
  <unicode hex="043D"/>
  <outline>
    <contour>
      <point x="132" y="206" type="line"/>
      <point x="155" y="280" type="line"/>
      <point x="480" y="280" type="line"/>
      <point x="456" y="206" type="line"/>
    </contour>
    <contour>
      <point x="483" y="459" type="line"/>
      <point x="569" y="460" type="line"/>
      <point x="407" y="0" type="line"/>
      <point x="333" y="0" type="line"/>
    </contour>
    <contour>
      <point x="168" y="459" type="line"/>
      <point x="254" y="460" type="line"/>
      <point x="92" y="0" type="line"/>
      <point x="17" y="0" type="line"/>
    </contour>
  </outline>
</glyph>
<glyph name="uni0443" format="2">
  <advance width="413"/>
  <unicode hex="0443"/>
  <outline>
    <contour>
      <point x="524" y="459" type="line"/>
      <point x="7" y="-219" type="line"/>
      <point x="-90" y="-219" type="line"/>
      <point x="135" y="73" type="line"/>
      <point x="104" y="460" type="line"/>
      <point x="192" y="460" type="line"/>
      <point x="208" y="100" type="line"/>
      <point x="174" y="106" type="line"/>
      <point x="427" y="459" type="line"/>
    </contour>
  </outline>
</glyph>
<glyph name="uni044F" format="2">
  <advance width="454"/>
  <unicode hex="044F"/>
  <outline>
    <contour>
      <point x="86" y="0" type="line"/>
      <point x="-13" y="0" type="line"/>
      <point x="233" y="238" type="line"/>
      <point x="321" y="237" type="line"/>
    </contour>
    <contour>
      <point x="358" y="0" type="line"/>
      <point x="273" y="0" type="line"/>
      <point x="435" y="459" type="line"/>
      <point x="509" y="459" type="line"/>
    </contour>
    <contour>
      <point x="396" y="253" type="line"/>
      <point x="375" y="185" type="line"/>
      <point x="245" y="184" type="line" smooth="yes"/>
      <point x="162" y="183"/>
      <point x="98" y="233"/>
      <point x="124" y="323" type="curve" smooth="yes"/>
      <point x="150" y="412"/>
      <point x="237" y="455"/>
      <point x="324" y="459" type="curve" smooth="yes"/>
      <point x="466" y="459" type="line"/>
      <point x="445" y="391" type="line"/>
      <point x="315" y="390" type="line" smooth="yes"/>
      <point x="271" y="390"/>
      <point x="217" y="368"/>
      <point x="202" y="321" type="curve" smooth="yes"/>
      <point x="187" y="277"/>
      <point x="216" y="256"/>
      <point x="255" y="255" type="curve" smooth="yes"/>
    </contour>
  </outline>
</glyph>
<glyph name="uni0451" format="2">
  <advance width="484"/>
  <unicode hex="0451"/>
  <outline>
    <contour>
      <point x="111" y="210" type="line"/>
      <point x="131" y="278" type="line"/>
      <point x="419" y="278" type="line"/>
      <point x="435" y="339"/>
      <point x="415" y="397"/>
      <point x="341" y="399" type="curve" smooth="yes"/>
      <point x="256" y="401"/>
      <point x="190" y="332"/>
      <point x="158" y="260" type="curve" smooth="yes"/>
      <point x="146" y="230" type="line"/>
      <point x="122" y="157"/>
      <point x="135" y="67"/>
      <point x="228" y="66" type="curve" smooth="yes"/>
      <point x="292" y="65"/>
      <point x="343" y="108"/>
      <point x="389" y="149" type="curve"/>
      <point x="445" y="104" type="line"/>
      <point x="380" y="41"/>
      <point x="301" y="-11"/>
      <point x="206" y="-9" type="curve" smooth="yes"/>
      <point x="75" y="-6"/>
      <point x="38" y="120"/>
      <point x="68" y="230" type="curve" smooth="yes"/>
      <point x="73" y="247"/>
      <point x="79" y="263"/>
      <point x="86" y="279" type="curve" smooth="yes"/>
      <point x="133" y="381"/>
      <point x="235" y="470"/>
      <point x="352" y="469" type="curve" smooth="yes"/>
      <point x="487" y="468"/>
      <point x="519" y="346"/>
      <point x="491" y="234" type="curve" smooth="yes"/>
      <point x="489" y="226"/>
      <point x="486" y="218"/>
      <point x="484" y="210" type="curve"/>
    </contour>
    <contour>
      <point x="430.966" y="585.211" type="curve" smooth="yes"/>
      <point x="435.966" y="609.211"/>
      <point x="473.966" y="640.211"/>
      <point x="498.966" y="637.211" type="curve" smooth="yes"/>
      <point x="525.966" y="634.211"/>
      <point x="541.966" y="607.211"/>
      <point x="536.966" y="581.211" type="curve" smooth="yes"/>
      <point x="531.966" y="557.211"/>
      <point x="493.966" y="526.211"/>
      <point x="468.966" y="529.211" type="curve" smooth="yes"/>
      <point x="441.966" y="532.211"/>
      <point x="425.966" y="559.211"/>
    </contour>
    <contour>
      <point x="242.966" y="585.211" type="curve" smooth="yes"/>
      <point x="247.966" y="609.211"/>
      <point x="285.966" y="640.211"/>
      <point x="310.966" y="637.211" type="curve" smooth="yes"/>
      <point x="337.966" y="634.211"/>
      <point x="353.966" y="607.211"/>
      <point x="348.966" y="581.211" type="curve" smooth="yes"/>
      <point x="343.966" y="557.211"/>
      <point x="305.966" y="526.211"/>
      <point x="280.966" y="529.211" type="curve" smooth="yes"/>
      <point x="253.966" y="532.211"/>
      <point x="237.966" y="559.211"/>
    </contour>
  </outline>
</glyph>
<glyph name="uni0453" format="2">
  <advance width="310"/>
  <unicode hex="0453"/>
  <outline>
    <contour>
      <point x="172" y="459" type="line"/>
      <point x="412" y="460" type="line"/>
      <point x="385" y="385" type="line"/>
      <point x="231" y="385" type="line"/>
      <point x="97" y="0" type="line"/>
      <point x="22" y="0" type="line"/>
    </contour>
    <contour>
      <point x="539" y="673" type="line"/>
      <point x="324" y="531" type="line"/>
      <point x="283" y="565" type="line"/>
      <point x="474" y="719" type="line"/>
    </contour>
  </outline>
</glyph>
<glyph name="uni045C" format="2">
  <advance width="413"/>
  <unicode hex="045C"/>
  <outline>
    <contour>
      <point x="163" y="459" type="line"/>
      <point x="249" y="460" type="line"/>
      <point x="87" y="0" type="line"/>
      <point x="13" y="0" type="line"/>
    </contour>
    <contour>
      <point x="396" y="459" type="line"/>
      <point x="507" y="459" type="line"/>
      <point x="243" y="264" type="line"/>
      <point x="356" y="0" type="line"/>
      <point x="270" y="0" type="line"/>
      <point x="151" y="277" type="line"/>
    </contour>
    <contour>
      <point x="579" y="673" type="line"/>
      <point x="364" y="531" type="line"/>
      <point x="323" y="565" type="line"/>
      <point x="514" y="719" type="line"/>
    </contour>
  </outline>
</glyph>
<glyph name="uni045E" format="2">
  <advance width="413"/>
  <unicode hex="045E"/>
  <outline>
    <contour>
      <point x="524" y="459" type="line"/>
      <point x="7" y="-219" type="line"/>
      <point x="-90" y="-219" type="line"/>
      <point x="135" y="73" type="line"/>
      <point x="104" y="460" type="line"/>
      <point x="192" y="460" type="line"/>
      <point x="208" y="100" type="line"/>
      <point x="174" y="106" type="line"/>
      <point x="427" y="459" type="line"/>
    </contour>
    <contour>
      <point x="230" y="670" type="curve"/>
      <point x="297" y="669" type="line"/>
      <point x="293" y="630"/>
      <point x="300" y="597"/>
      <point x="347" y="596" type="curve" smooth="yes"/>
      <point x="398" y="595"/>
      <point x="432" y="631"/>
      <point x="459" y="669" type="curve"/>
      <point x="531" y="667" type="line"/>
      <point x="495" y="591"/>
      <point x="431" y="531"/>
      <point x="342" y="531" type="curve" smooth="yes"/>
      <point x="255" y="531"/>
      <point x="220" y="591"/>
    </contour>
  </outline>
</glyph>
<glyph name="uni1E9E" format="2">
  <advance width="716"/>
  <unicode hex="1E9E"/>
  <outline>
    <contour>
      <point x="422" y="-12" type="curve" smooth="yes"/>
      <point x="572" y="-12"/>
      <point x="678" y="68"/>
      <point x="678" y="182" type="curve" smooth="yes"/>
      <point x="678" y="333"/>
      <point x="546" y="307"/>
      <point x="546" y="363" type="curve" smooth="yes"/>
      <point x="546" y="409"/>
      <point x="752" y="416"/>
      <point x="752" y="572" type="curve" smooth="yes"/>
      <point x="752" y="668"/>
      <point x="658" y="709"/>
      <point x="536" y="709" type="curve" smooth="yes"/>
      <point x="368" y="709"/>
      <point x="216.763" y="589.803"/>
      <point x="150" y="389" type="curve" smooth="yes"/>
      <point x="20" y="-2" type="line"/>
      <point x="106" y="-2" type="line"/>
      <point x="234" y="382" type="line" smooth="yes"/>
      <point x="285.6" y="536.8"/>
      <point x="408" y="632"/>
      <point x="543" y="632" type="curve" smooth="yes"/>
      <point x="627" y="632"/>
      <point x="662" y="596"/>
      <point x="662" y="554" type="curve" smooth="yes"/>
      <point x="662" y="461"/>
      <point x="448" y="466"/>
      <point x="448" y="350" type="curve" smooth="yes"/>
      <point x="448" y="256"/>
      <point x="583" y="272"/>
      <point x="583" y="176" type="curve" smooth="yes"/>
      <point x="583" y="102"/>
      <point x="509" y="74"/>
      <point x="428" y="74" type="curve" smooth="yes"/>
      <point x="358" y="74"/>
      <point x="316" y="95"/>
      <point x="270" y="126" type="curve"/>
      <point x="230" y="54" type="line"/>
      <point x="279" y="15"/>
      <point x="336" y="-12"/>
    </contour>
  </outline>
</glyph>
<glyph name="figuredash" format="2">
  <advance width="555"/>
  <unicode hex="2012"/>
  <outline>
    <contour>
      <point x="81" y="201" type="line"/>
      <point x="105" y="275" type="line"/>
      <point x="532" y="275" type="line"/>
      <point x="507" y="200" type="line"/>
    </contour>
  </outline>
</glyph>
<glyph name="emdash" format="2">
  <advance width="837"/>
  <unicode hex="2014"/>
  <outline>
    <contour>
      <point x="81" y="201" type="line"/>
      <point x="105" y="275" type="line"/>
      <point x="814" y="275" type="line"/>
      <point x="789" y="200" type="line"/>
    </contour>
  </outline>
</glyph>
<glyph name="quoteleft" format="2">
  <advance width="258"/>
  <unicode hex="2018"/>
  <outline>
    <contour>
      <point x="265" y="471" type="line"/>
      <point x="166" y="471" type="line"/>
      <point x="342" y="698" type="line"/>
      <point x="398" y="698" type="line"/>
    </contour>
  </outline>
</glyph>
<glyph name="quoteright" format="2">
  <advance width="258"/>
  <unicode hex="2019"/>
  <outline>
    <contour>
      <point x="285" y="699" type="line"/>
      <point x="383" y="699" type="line"/>
      <point x="207" y="472" type="line"/>
      <point x="152" y="472" type="line"/>
    </contour>
  </outline>
</glyph>
<glyph name="quotedblleft" format="2">
  <advance width="446"/>
  <unicode hex="201C"/>
  <outline>
    <contour>
      <point x="265" y="471" type="line"/>
      <point x="166" y="471" type="line"/>
      <point x="342" y="698" type="line"/>
      <point x="398" y="698" type="line"/>
    </contour>
    <contour>
      <point x="453" y="471" type="line"/>
      <point x="354" y="471" type="line"/>
      <point x="530" y="698" type="line"/>
      <point x="586" y="698" type="line"/>
    </contour>
  </outline>
</glyph>
<glyph name="bullet" format="2">
  <advance width="282"/>
  <unicode hex="2022"/>
  <outline>
    <contour>
      <point x="175" y="418" type="curve" smooth="yes"/>
      <point x="175" y="448"/>
      <point x="199" y="472"/>
      <point x="229" y="472" type="curve" smooth="yes"/>
      <point x="259" y="472"/>
      <point x="283" y="448"/>
      <point x="283" y="418" type="curve" smooth="yes"/>
      <point x="283" y="388"/>
      <point x="259" y="364"/>
      <point x="229" y="364" type="curve" smooth="yes"/>
      <point x="199" y="364"/>
      <point x="175" y="388"/>
    </contour>
  </outline>
</glyph>
<glyph name="guilsinglright" format="2">
  <advance width="329"/>
  <unicode hex="203A"/>
  <outline>
    <contour>
      <point x="238" y="252" type="line"/>
      <point x="162" y="447" type="line"/>
      <point x="222" y="490" type="line"/>
      <point x="325" y="249" type="line"/>
      <point x="69" y="21" type="line"/>
      <point x="32" y="68" type="line"/>
    </contour>
  </outline>
</glyph>
<glyph name="uni2077" format="2">
  <advance width="333"/>
  <unicode hex="2077"/>
  <outline>
    <contour>
      <point x="196" y="653" type="line"/>
      <point x="211" y="699" type="line"/>
      <point x="494" y="699" type="line"/>
      <point x="160" y="282" type="line"/>
      <point x="106" y="282" type="line"/>
      <point x="398" y="651" type="line"/>
    </contour>
  </outline>
</glyph>
<glyph name="uni2150" format="2">
  <advance width="792"/>
  <unicode hex="2150"/>
  <outline>
    <contour>
      <point x="715" y="698" type="line"/>
      <point x="781" y="697" type="line"/>
      <point x="56" y="0" type="line"/>
      <point x="-10" y="0" type="line"/>
    </contour>
    <contour>
      <point x="183" y="613" type="line"/>
      <point x="199" y="664" type="line"/>
      <point x="352" y="701" type="line"/>
      <point x="205" y="275" type="line"/>
      <point x="154" y="275" type="line"/>
      <point x="276" y="636" type="line"/>
    </contour>
    <contour>
      <point x="560" y="373" type="line"/>
      <point x="575" y="419" type="line"/>
      <point x="858" y="419" type="line"/>
      <point x="524" y="0" type="line"/>
      <point x="470" y="0" type="line"/>
      <point x="761" y="371" type="line"/>
    </contour>
  </outline>
</glyph>
<glyph name="uni2151" format="2">
  <advance width="737"/>
  <unicode hex="2151"/>
  <outline>
    <contour>
      <point x="715" y="698" type="line"/>
      <point x="781" y="697" type="line"/>
      <point x="56" y="0" type="line"/>
      <point x="-10" y="0" type="line"/>
    </contour>
    <contour>
      <point x="183" y="613" type="line"/>
      <point x="199" y="664" type="line"/>
      <point x="352" y="701" type="line"/>
      <point x="205" y="275" type="line"/>
      <point x="154" y="275" type="line"/>
      <point x="276" y="636" type="line"/>
    </contour>
    <contour>
      <point x="717" y="284" type="curve" smooth="yes"/>
      <point x="732" y="327"/>
      <point x="720" y="379"/>
      <point x="667" y="381" type="curve" smooth="yes"/>
      <point x="613" y="384"/>
      <point x="557" y="332"/>
      <point x="540" y="284" type="curve" smooth="yes"/>
      <point x="525" y="241"/>
      <point x="537" y="189"/>
      <point x="590" y="186" type="curve" smooth="yes"/>
      <point x="644" y="183"/>
      <point x="700" y="236"/>
    </contour>
    <contour>
      <point x="513" y="4" type="line"/>
      <point x="447" y="5" type="line"/>
      <point x="628" y="174" type="line"/>
      <point x="634" y="167" type="line"/>
      <point x="613" y="158"/>
      <point x="592" y="147"/>
      <point x="568" y="148" type="curve" smooth="yes"/>
      <point x="496" y="150"/>
      <point x="475" y="226"/>
      <point x="493" y="285" type="curve" smooth="yes"/>
      <point x="516" y="360"/>
      <point x="593" y="427"/>
      <point x="673" y="427" type="curve" smooth="yes"/>
      <point x="753" y="427"/>
      <point x="788" y="354"/>
      <point x="765" y="283" type="curve" smooth="yes"/>
      <point x="755" y="251"/>
      <point x="735" y="222"/>
      <point x="712" y="197" type="curve"/>
    </contour>
  </outline>
</glyph>
<glyph name="uni2152" format="2">
  <advance width="1016"/>
  <unicode hex="2152"/>
  <outline>
    <contour>
      <point x="715" y="698" type="line"/>
      <point x="781" y="697" type="line"/>
      <point x="56" y="0" type="line"/>
      <point x="-10" y="0" type="line"/>
    </contour>
    <contour>
      <point x="183" y="613" type="line"/>
      <point x="199" y="664" type="line"/>
      <point x="352" y="701" type="line"/>
      <point x="205" y="275" type="line"/>
      <point x="154" y="275" type="line"/>
      <point x="276" y="636" type="line"/>
    </contour>
    <contour>
      <point x="521" y="340" type="line"/>
      <point x="537" y="391" type="line"/>
      <point x="690" y="428" type="line"/>
      <point x="542" y="2" type="line"/>
      <point x="492" y="2" type="line"/>
      <point x="614" y="363" type="line"/>
    </contour>
    <contour>
      <point x="761" y="210" type="curve" smooth="yes"/>
      <point x="744" y="162"/>
      <point x="714" y="46"/>
      <point x="796" y="43" type="curve" smooth="yes"/>
      <point x="878" y="40"/>
      <point x="933" y="146"/>
      <point x="957" y="210" type="curve" smooth="yes"/>
      <point x="974" y="258"/>
      <point x="1004" y="374"/>
      <point x="922" y="377" type="curve" smooth="yes"/>
      <point x="840" y="380"/>
      <point x="785" y="274"/>
    </contour>
    <contour>
      <point x="710" y="210" type="curve" smooth="yes"/>
      <point x="739" y="301"/>
      <point x="818" y="426"/>
      <point x="927" y="425" type="curve" smooth="yes"/>
      <point x="1040" y="424"/>
      <point x="1032" y="287"/>
      <point x="1007" y="210" type="curve" smooth="yes"/>
      <point x="978" y="119"/>
      <point x="899" y="-6"/>
      <point x="790" y="-5" type="curve" smooth="yes"/>
      <point x="677" y="-4"/>
      <point x="685" y="133"/>
    </contour>
  </outline>
</glyph>
<glyph name="uni2158" format="2">
  <advance width="814"/>
  <unicode hex="2158"/>
  <outline>
    <contour>
      <point x="830" y="698" type="line"/>
      <point x="896" y="697" type="line"/>
      <point x="171" y="0" type="line"/>
      <point x="105" y="0" type="line"/>
    </contour>
    <contour>
      <point x="98" y="366" type="line"/>
      <point x="148" y="407" type="line"/>
      <point x="319" y="409" type="line"/>
      <point x="329" y="409" type="line"/>
      <point x="415" y="408" type="line"/>
      <point x="401" y="365" type="line"/>
    </contour>
    <contour>
      <point x="153" y="366" type="line"/>
      <point x="97" y="367" type="line"/>
      <point x="429" y="698" type="line"/>
      <point x="452" y="699" type="line"/>
      <point x="310" y="281" type="line"/>
      <point x="260" y="281" type="line"/>
      <point x="296" y="386" type="line"/>
      <point x="297" y="392" type="line"/>
      <point x="362" y="576" type="line"/>
    </contour>
    <contour>
      <point x="781" y="135" type="curve" smooth="yes"/>
      <point x="757" y="57"/>
      <point x="680" y="-7"/>
      <point x="597" y="-7" type="curve" smooth="yes"/>
      <point x="536" y="-7"/>
      <point x="501" y="28"/>
      <point x="480" y="82" type="curve"/>
      <point x="528" y="110" type="line"/>
      <point x="541" y="74"/>
      <point x="559" y="42"/>
      <point x="602" y="41" type="curve" smooth="yes"/>
      <point x="657" y="40"/>
      <point x="712" y="86"/>
      <point x="729" y="136" type="curve" smooth="yes"/>
      <point x="745" y="181"/>
      <point x="729" y="225"/>
      <point x="678" y="231" type="curve" smooth="yes"/>
      <point x="637" y="235"/>
      <point x="595" y="213"/>
      <point x="560" y="197" type="curve"/>
      <point x="598" y="233" type="line"/>
      <point x="626" y="257"/>
      <point x="667" y="278"/>
      <point x="705" y="277" type="curve" smooth="yes"/>
      <point x="782" y="275"/>
      <point x="801" y="198"/>
    </contour>
    <contour>
      <point x="714" y="373" type="line"/>
      <point x="638" y="245" type="line"/>
      <point x="549" y="186" type="line"/>
      <point x="686" y="417" type="line"/>
      <point x="875" y="417" type="line"/>
      <point x="860" y="374" type="line"/>
    </contour>
  </outline>
</glyph>
<glyph name="uni215A" format="2">
  <advance width="805"/>
  <unicode hex="215A"/>
  <outline>
    <contour>
      <point x="830" y="698" type="line"/>
      <point x="896" y="697" type="line"/>
      <point x="171" y="0" type="line"/>
      <point x="105" y="0" type="line"/>
    </contour>
    <contour>
      <point x="396" y="415" type="curve" smooth="yes"/>
      <point x="372" y="337"/>
      <point x="295" y="273"/>
      <point x="212" y="273" type="curve" smooth="yes"/>
      <point x="151" y="273"/>
      <point x="117" y="308"/>
      <point x="96" y="362" type="curve"/>
      <point x="144" y="390" type="line"/>
      <point x="157" y="354"/>
      <point x="175" y="322"/>
      <point x="218" y="321" type="curve" smooth="yes"/>
      <point x="273" y="320"/>
      <point x="327" y="366"/>
      <point x="344" y="416" type="curve" smooth="yes"/>
      <point x="360" y="461"/>
      <point x="345" y="505"/>
      <point x="294" y="511" type="curve" smooth="yes"/>
      <point x="253" y="515"/>
      <point x="211" y="493"/>
      <point x="176" y="477" type="curve"/>
      <point x="213" y="513" type="line"/>
      <point x="241" y="537"/>
      <point x="282" y="558"/>
      <point x="320" y="557" type="curve" smooth="yes"/>
      <point x="397" y="555"/>
      <point x="416" y="478"/>
    </contour>
    <contour>
      <point x="330" y="653" type="line"/>
      <point x="254" y="525" type="line"/>
      <point x="164" y="466" type="line"/>
      <point x="302" y="697" type="line"/>
      <point x="491" y="697" type="line"/>
      <point x="476" y="654" type="line"/>
    </contour>
    <contour>
      <point x="552" y="136" type="curve" smooth="yes"/>
      <point x="537" y="93"/>
      <point x="549" y="41"/>
      <point x="602" y="39" type="curve" smooth="yes"/>
      <point x="656" y="36"/>
      <point x="712" y="88"/>
      <point x="729" y="136" type="curve" smooth="yes"/>
      <point x="744" y="179"/>
      <point x="732" y="231"/>
      <point x="679" y="234" type="curve" smooth="yes"/>
      <point x="625" y="237"/>
      <point x="569" y="184"/>
    </contour>
    <contour>
      <point x="756" y="416" type="line"/>
      <point x="822" y="415" type="line"/>
      <point x="642" y="246" type="line"/>
      <point x="636" y="253" type="line"/>
      <point x="657" y="262"/>
      <point x="677" y="273"/>
      <point x="701" y="272" type="curve" smooth="yes"/>
      <point x="773" y="270"/>
      <point x="794" y="194"/>
      <point x="776" y="135" type="curve" smooth="yes"/>
      <point x="753" y="60"/>
      <point x="677" y="-7"/>
      <point x="597" y="-7" type="curve" smooth="yes"/>
      <point x="517" y="-7"/>
      <point x="481" y="66"/>
      <point x="504" y="137" type="curve" smooth="yes"/>
      <point x="514" y="169"/>
      <point x="534" y="198"/>
      <point x="557" y="223" type="curve"/>
    </contour>
  </outline>
</glyph>
<glyph name="fiveeighths" format="2">
  <advance width="829"/>
  <unicode hex="215D"/>
  <outline>
    <contour>
      <point x="830" y="698" type="line"/>
      <point x="896" y="697" type="line"/>
      <point x="171" y="0" type="line"/>
      <point x="105" y="0" type="line"/>
    </contour>
    <contour>
      <point x="396" y="415" type="curve" smooth="yes"/>
      <point x="372" y="337"/>
      <point x="295" y="273"/>
      <point x="212" y="273" type="curve" smooth="yes"/>
      <point x="151" y="273"/>
      <point x="117" y="308"/>
      <point x="96" y="362" type="curve"/>
      <point x="144" y="390" type="line"/>
      <point x="157" y="354"/>
      <point x="175" y="322"/>
      <point x="218" y="321" type="curve" smooth="yes"/>
      <point x="273" y="320"/>
      <point x="327" y="366"/>
      <point x="344" y="416" type="curve" smooth="yes"/>
      <point x="360" y="461"/>
      <point x="345" y="505"/>
      <point x="294" y="511" type="curve" smooth="yes"/>
      <point x="253" y="515"/>
      <point x="211" y="493"/>
      <point x="176" y="477" type="curve"/>
      <point x="213" y="513" type="line"/>
      <point x="241" y="537"/>
      <point x="282" y="558"/>
      <point x="320" y="557" type="curve" smooth="yes"/>
      <point x="397" y="555"/>
      <point x="416" y="478"/>
    </contour>
    <contour>
      <point x="330" y="653" type="line"/>
      <point x="254" y="525" type="line"/>
      <point x="164" y="466" type="line"/>
      <point x="302" y="697" type="line"/>
      <point x="491" y="697" type="line"/>
      <point x="476" y="654" type="line"/>
    </contour>
    <contour>
      <point x="622" y="320" type="curve" smooth="yes"/>
      <point x="640" y="377"/>
      <point x="705" y="426"/>
      <point x="765" y="425" type="curve" smooth="yes"/>
      <point x="824" y="424"/>
      <point x="860" y="374"/>
      <point x="844" y="318" type="curve" smooth="yes"/>
      <point x="827" y="259"/>
      <point x="762" y="213"/>
      <point x="701" y="214" type="curve" smooth="yes"/>
      <point x="640" y="215"/>
      <point x="604" y="261"/>
    </contour>
    <contour>
      <point x="668" y="312" type="curve" smooth="yes"/>
      <point x="658" y="283"/>
      <point x="670" y="250"/>
      <point x="704" y="247" type="curve" smooth="yes"/>
      <point x="739" y="244"/>
      <point x="783" y="282"/>
      <point x="794" y="314" type="curve" smooth="yes"/>
      <point x="804" y="344"/>
      <point x="793" y="377"/>
      <point x="758" y="380" type="curve" smooth="yes"/>
      <point x="722" y="383"/>
      <point x="679" y="345"/>
    </contour>
    <contour>
      <point x="538" y="115" type="curve" smooth="yes"/>
      <point x="558" y="181"/>
      <point x="630" y="234"/>
      <point x="699" y="233" type="curve" smooth="yes"/>
      <point x="767" y="233"/>
      <point x="808" y="178"/>
      <point x="788" y="113" type="curve" smooth="yes"/>
      <point x="768" y="48"/>
      <point x="695" y="-6"/>
      <point x="627" y="-5" type="curve" smooth="yes"/>
      <point x="561" y="-4"/>
      <point x="519" y="52"/>
    </contour>
    <contour>
      <point x="588" y="120" type="curve" smooth="yes"/>
      <point x="574" y="83"/>
      <point x="590" y="42"/>
      <point x="633" y="40" type="curve" smooth="yes"/>
      <point x="678" y="38"/>
      <point x="728" y="79"/>
      <point x="742" y="120" type="curve" smooth="yes"/>
      <point x="754" y="156"/>
      <point x="739" y="198"/>
      <point x="697" y="200" type="curve" smooth="yes"/>
      <point x="653" y="202"/>
      <point x="602" y="159"/>
    </contour>
  </outline>
</glyph>
<glyph name="partialdiff" format="2">
  <advance width="576"/>
  <unicode hex="2202"/>
  <outline>
    <contour>
      <point x="238" y="-10" type="curve" smooth="yes"/>
      <point x="119" y="-10"/>
      <point x="50" y="60"/>
      <point x="50" y="180" type="curve" smooth="yes"/>
      <point x="50" y="341"/>
      <point x="217" y="457"/>
      <point x="337" y="457" type="curve" smooth="yes"/>
      <point x="397" y="457"/>
      <point x="432" y="433"/>
      <point x="479" y="386" type="curve"/>
      <point x="443" y="386" type="line"/>
      <point x="409" y="499"/>
      <point x="367" y="576"/>
      <point x="253" y="669" type="curve"/>
      <point x="301" y="725" type="line"/>
      <point x="475" y="571"/>
      <point x="526" y="454"/>
      <point x="526" y="320" type="curve" smooth="yes"/>
      <point x="526" y="170"/>
      <point x="427" y="-10"/>
    </contour>
    <contour>
      <point x="238" y="67" type="curve" smooth="yes"/>
      <point x="360" y="67"/>
      <point x="439" y="186"/>
      <point x="439" y="280" type="curve" smooth="yes"/>
      <point x="439" y="365"/>
      <point x="398" y="395"/>
      <point x="338" y="395" type="curve" smooth="yes"/>
      <point x="248" y="395"/>
      <point x="131" y="295"/>
      <point x="131" y="180" type="curve" smooth="yes"/>
      <point x="131" y="106"/>
      <point x="176" y="67"/>
    </contour>
  </outline>
</glyph>
<glyph name="emptyset" format="2">
  <advance width="600"/>
  <unicode hex="2205"/>
  <outline>
    <contour>
      <point x="250" y="28" type="curve" smooth="yes"/>
      <point x="142" y="28"/>
      <point x="86" y="114"/>
      <point x="86" y="202" type="curve" smooth="yes"/>
      <point x="86" y="340"/>
      <point x="222" y="456"/>
      <point x="360" y="456" type="curve" smooth="yes"/>
      <point x="468" y="456"/>
      <point x="524" y="370"/>
      <point x="524" y="282" type="curve" smooth="yes"/>
      <point x="524" y="164"/>
      <point x="418" y="28"/>
    </contour>
    <contour>
      <point x="250" y="90" type="curve" smooth="yes"/>
      <point x="385" y="90"/>
      <point x="462" y="202"/>
      <point x="462" y="282" type="curve" smooth="yes"/>
      <point x="462" y="336"/>
      <point x="434" y="394"/>
      <point x="360" y="394" type="curve" smooth="yes"/>
      <point x="256" y="394"/>
      <point x="148" y="306"/>
      <point x="148" y="202" type="curve" smooth="yes"/>
      <point x="148" y="148"/>
      <point x="176" y="90"/>
    </contour>
    <contour>
      <point x="94" y="50" type="line"/>
      <point x="57" y="86" type="line"/>
      <point x="506" y="434" type="line"/>
      <point x="544" y="398" type="line"/>
    </contour>
  </outline>
</glyph>
<glyph name="product" format="2">
  <advance width="600"/>
  <unicode hex="220F"/>
  <outline>
    <contour>
      <point x="100" y="0" type="line"/>
      <point x="320" y="630" type="line"/>
      <point x="235" y="630" type="line"/>
      <point x="255" y="700" type="line"/>
      <point x="705" y="700" type="line"/>
      <point x="685" y="630" type="line"/>
      <point x="600" y="630" type="line"/>
      <point x="380" y="0" type="line"/>
      <point x="300" y="0" type="line"/>
      <point x="520" y="630" type="line"/>
      <point x="400" y="630" type="line"/>
      <point x="180" y="0" type="line"/>
    </contour>
  </outline>
</glyph>
<glyph name="summation" format="2">
  <advance width="600"/>
  <unicode hex="2211"/>
  <outline>
    <contour>
      <point x="10" y="0" type="line"/>
      <point x="302" y="361" type="line"/>
      <point x="244" y="700" type="line"/>
      <point x="644" y="700" type="line"/>
      <point x="620" y="628" type="line"/>
      <point x="336" y="628" type="line"/>
      <point x="388" y="352" type="line"/>
      <point x="160" y="72" type="line"/>
      <point x="434" y="72" type="line"/>
      <point x="410" y="0" type="line"/>
    </contour>
  </outline>
</glyph>
<glyph name="uni2215" format="2">
  <advance width="484"/>
  <unicode hex="2215"/>
  <outline>
    <contour>
      <point x="575" y="699" type="line"/>
      <point x="660" y="699" type="line"/>
      <point x="-14" y="-149" type="line"/>
      <point x="-92" y="-148" type="line"/>
    </contour>
  </outline>
</glyph>
<glyph name="radical" format="2">
  <advance width="600"/>
  <unicode hex="221A"/>
  <outline>
    <contour>
      <point x="86" y="-200" type="line"/>
      <point x="559" y="682" type="line"/>
      <point x="480" y="628" type="line"/>
      <point x="622" y="628" type="line"/>
      <point x="642" y="700" type="line"/>
      <point x="484" y="700" type="line"/>
      <point x="115" y="-22" type="line"/>
      <point x="148" y="-42" type="line"/>
      <point x="168" y="234" type="line"/>
      <point x="25" y="201" type="line"/>
      <point x="19" y="144" type="line"/>
      <point x="158" y="176" type="line"/>
      <point x="98" y="204" type="line"/>
    </contour>
  </outline>
</glyph>
<glyph name="infinity" format="2">
  <advance width="750"/>
  <unicode hex="221E"/>
  <outline>
    <contour>
      <point x="117" y="48" type="curve" smooth="yes"/>
      <point x="27" y="48"/>
      <point x="-23" y="133"/>
      <point x="9" y="230" type="curve" smooth="yes"/>
      <point x="41" y="327"/>
      <point x="148" y="410"/>
      <point x="238" y="410" type="curve" smooth="yes"/>
      <point x="300" y="410"/>
      <point x="348" y="370"/>
      <point x="383" y="290" type="curve"/>
      <point x="472" y="370"/>
      <point x="545" y="410"/>
      <point x="607" y="410" type="curve" smooth="yes"/>
      <point x="697" y="410"/>
      <point x="747" y="327"/>
      <point x="715" y="230" type="curve" smooth="yes"/>
      <point x="683" y="133"/>
      <point x="576" y="48"/>
      <point x="486" y="48" type="curve" smooth="yes"/>
      <point x="424" y="48"/>
      <point x="377" y="88"/>
      <point x="342" y="168" type="curve"/>
      <point x="252" y="88"/>
      <point x="179" y="48"/>
    </contour>
    <contour>
      <point x="154" y="126" type="curve" smooth="yes"/>
      <point x="198" y="126"/>
      <point x="256" y="163"/>
      <point x="320" y="230" type="curve"/>
      <point x="302" y="296"/>
      <point x="267" y="333"/>
      <point x="223" y="333" type="curve" smooth="yes"/>
      <point x="173" y="333"/>
      <point x="111" y="285"/>
      <point x="93" y="230" type="curve" smooth="yes"/>
      <point x="75" y="176"/>
      <point x="104" y="126"/>
    </contour>
    <contour>
      <point x="501" y="126" type="curve" smooth="yes"/>
      <point x="551" y="126"/>
      <point x="613" y="176"/>
      <point x="631" y="230" type="curve" smooth="yes"/>
      <point x="649" y="285"/>
      <point x="620" y="333"/>
      <point x="570" y="333" type="curve" smooth="yes"/>
      <point x="526" y="333"/>
      <point x="467" y="296"/>
      <point x="405" y="230" type="curve"/>
      <point x="423" y="164"/>
      <point x="457" y="126"/>
    </contour>
  </outline>
</glyph>
<glyph name="greaterequal" format="2">
  <advance width="600"/>
  <unicode hex="2265"/>
  <outline>
    <contour>
      <point x="-25" y="0" type="line"/>
      <point x="485" y="0" type="line"/>
      <point x="512" y="80" type="line"/>
      <point x="2" y="80" type="line"/>
    </contour>
    <contour>
      <point x="13" y="115" type="line"/>
      <point x="597" y="335" type="line"/>
      <point x="612" y="380" type="line"/>
      <point x="176" y="600" type="line"/>
      <point x="149" y="520" type="line"/>
      <point x="471" y="353" type="line"/>
      <point x="40" y="195" type="line"/>
    </contour>
  </outline>
</glyph>
<glyph name="lozenge" format="2">
  <advance width="600"/>
  <unicode hex="25CA"/>
  <outline>
    <contour>
      <point x="221" y="15" type="line"/>
      <point x="529" y="356" type="line"/>
      <point x="449" y="696" type="line"/>
      <point x="129" y="356" type="line"/>
    </contour>
    <contour>
      <point x="271" y="172" type="line"/>
      <point x="220" y="356" type="line"/>
      <point x="394" y="540" type="line"/>
      <point x="438" y="356" type="line"/>
    </contour>
  </outline>
</glyph>
<glyph name="uniFF13" format="2">
  <advance width="545"/>
  <unicode hex="FF13"/>
  <outline>
    <contour>
      <point x="317" y="346" type="curve"/>
      <point x="334" y="400" type="line"/>
      <point x="409" y="412"/>
      <point x="481" y="445"/>
      <point x="510" y="521" type="curve" smooth="yes"/>
      <point x="529" y="572"/>
      <point x="518" y="630"/>
      <point x="455" y="632" type="curve" smooth="yes"/>
      <point x="387" y="634"/>
      <point x="337" y="580"/>
      <point x="305" y="527" type="curve"/>
      <point x="225" y="528" type="line"/>
      <point x="269" y="626"/>
      <point x="354" y="710"/>
      <point x="468" y="709" type="curve" smooth="yes"/>
      <point x="571" y="708"/>
      <point x="626" y="618"/>
      <point x="595" y="523" type="curve" smooth="yes"/>
      <point x="557" y="404"/>
      <point x="431" y="355"/>
    </contour>
    <contour>
      <point x="231" y="-9" type="curve" smooth="yes"/>
      <point x="113" y="-9"/>
      <point x="58" y="75"/>
      <point x="79" y="185" type="curve"/>
      <point x="161" y="184" type="line"/>
      <point x="152" y="120"/>
      <point x="174" y="72"/>
      <point x="246" y="71" type="curve" smooth="yes"/>
      <point x="320" y="70"/>
      <point x="392" y="126"/>
      <point x="417" y="195" type="curve" smooth="yes"/>
      <point x="448" y="281"/>
      <point x="384" y="315"/>
      <point x="310" y="325" type="curve"/>
      <point x="327" y="379" type="line"/>
      <point x="441" y="371"/>
      <point x="539" y="313"/>
      <point x="498" y="184" type="curve" smooth="yes"/>
      <point x="462" y="72"/>
      <point x="348" y="-9"/>
    </contour>
  </outline>
</glyph>
<glyph name="uniFF15" format="2">
  <advance width="545"/>
  <unicode hex="FF15"/>
  <outline>
    <contour>
      <point x="527" y="230" type="curve" smooth="yes"/>
      <point x="485" y="98"/>
      <point x="360" y="-9"/>
      <point x="218" y="-9" type="curve" smooth="yes"/>
      <point x="118" y="-9"/>
      <point x="57" y="48"/>
      <point x="27" y="139" type="curve"/>
      <point x="109" y="185" type="line"/>
      <point x="127" y="123"/>
      <point x="164" y="72"/>
      <point x="234" y="71" type="curve" smooth="yes"/>
      <point x="328" y="70"/>
      <point x="410" y="145"/>
      <point x="441" y="230" type="curve" smooth="yes"/>
      <point x="468" y="305"/>
      <point x="442" y="384"/>
      <point x="354" y="389" type="curve" smooth="yes"/>
      <point x="285" y="393"/>
      <point x="220" y="359"/>
      <point x="160" y="330" type="curve"/>
      <point x="224" y="393" type="line"/>
      <point x="272" y="434"/>
      <point x="339" y="466"/>
      <point x="403" y="465" type="curve" smooth="yes"/>
      <point x="532" y="464"/>
      <point x="560" y="333"/>
    </contour>
    <contour>
      <point x="415" y="625" type="line"/>
      <point x="289" y="414" type="line"/>
      <point x="148" y="319" type="line"/>
      <point x="371" y="699" type="line"/>
      <point x="686" y="700" type="line"/>
      <point x="661" y="626" type="line"/>
    </contour>
  </outline>
</glyph>
<glyph name="uniFF16" format="2">
  <advance width="545"/>
  <unicode hex="FF16"/>
  <outline>
    <contour>
      <point x="150" y="230" type="curve" smooth="yes"/>
      <point x="123" y="157"/>
      <point x="146" y="69"/>
      <point x="236" y="68" type="curve" smooth="yes"/>
      <point x="329" y="67"/>
      <point x="414" y="147"/>
      <point x="444" y="230" type="curve" smooth="yes"/>
      <point x="471" y="303"/>
      <point x="450" y="393"/>
      <point x="359" y="394" type="curve" smooth="yes"/>
      <point x="266" y="395"/>
      <point x="180" y="313"/>
    </contour>
    <contour>
      <point x="493" y="699" type="line"/>
      <point x="603" y="699" type="line"/>
      <point x="296" y="412" type="line"/>
      <point x="288" y="421" type="line"/>
      <point x="323" y="442"/>
      <point x="357" y="457"/>
      <point x="399" y="456" type="curve" smooth="yes"/>
      <point x="521" y="453"/>
      <point x="554" y="328"/>
      <point x="523" y="229" type="curve" smooth="yes"/>
      <point x="483" y="102"/>
      <point x="358" y="-9"/>
      <point x="221" y="-9" type="curve" smooth="yes"/>
      <point x="86" y="-9"/>
      <point x="35" y="113"/>
      <point x="72" y="230" type="curve" smooth="yes"/>
      <point x="89" y="284"/>
      <point x="121" y="334"/>
      <point x="160" y="375" type="curve" smooth="yes"/>
    </contour>
  </outline>
</glyph>
<glyph name="uniFF17" format="2">
  <advance width="545"/>
  <unicode hex="FF17"/>
  <outline>
    <contour>
      <point x="210" y="620" type="line"/>
      <point x="238" y="700" type="line"/>
      <point x="705" y="699" type="line"/>
      <point x="148" y="0" type="line"/>
      <point x="57" y="0" type="line"/>
      <point x="549" y="619" type="line"/>
    </contour>
  </outline>
</glyph>
<glyph name="acircumflex.alt" format="2">
  <advance width="536"/>
  <outline>
    <contour>
      <point x="500" y="459" type="line"/>
      <point x="577" y="460" type="line"/>
      <point x="417" y="0" type="line"/>
      <point x="346" y="0" type="line"/>
    </contour>
    <contour>
      <point x="55" y="230" type="curve" smooth="yes"/>
      <point x="94" y="352"/>
      <point x="213" y="472"/>
      <point x="348" y="470" type="curve" smooth="yes"/>
      <point x="480" y="468"/>
      <point x="487" y="328"/>
      <point x="455" y="230" type="curve" smooth="yes"/>
      <point x="419" y="117"/>
      <point x="326" y="-8"/>
      <point x="196" y="-9" type="curve" smooth="yes"/>
      <point x="62" y="-10"/>
      <point x="19" y="119"/>
    </contour>
    <contour>
      <point x="134" y="230" type="curve" smooth="yes"/>
      <point x="107" y="157"/>
      <point x="127" y="66"/>
      <point x="219" y="66" type="curve" smooth="yes"/>
      <point x="309" y="66"/>
      <point x="390" y="151"/>
      <point x="419" y="230" type="curve" smooth="yes"/>
      <point x="443" y="298"/>
      <point x="430" y="390"/>
      <point x="343" y="394" type="curve" smooth="yes"/>
      <point x="249" y="398"/>
      <point x="164" y="312"/>
    </contour>
    <contour>
      <point x="431" y="624" type="line"/>
      <point x="293" y="531" type="line"/>
      <point x="254" y="573" type="line"/>
      <point x="451" y="710" type="line"/>
      <point x="559" y="568" type="line"/>
      <point x="501" y="531" type="line"/>
    </contour>
  </outline>
</glyph>
<glyph name="adieresis.alt" format="2">
  <advance width="536"/>
  <outline>
    <contour>
      <point x="500" y="459" type="line"/>
      <point x="577" y="460" type="line"/>
      <point x="417" y="0" type="line"/>
      <point x="346" y="0" type="line"/>
    </contour>
    <contour>
      <point x="55" y="230" type="curve" smooth="yes"/>
      <point x="94" y="352"/>
      <point x="213" y="472"/>
      <point x="348" y="470" type="curve" smooth="yes"/>
      <point x="480" y="468"/>
      <point x="487" y="328"/>
      <point x="455" y="230" type="curve" smooth="yes"/>
      <point x="419" y="117"/>
      <point x="326" y="-8"/>
      <point x="196" y="-9" type="curve" smooth="yes"/>
      <point x="62" y="-10"/>
      <point x="19" y="119"/>
    </contour>
    <contour>
      <point x="134" y="230" type="curve" smooth="yes"/>
      <point x="107" y="157"/>
      <point x="127" y="66"/>
      <point x="219" y="66" type="curve" smooth="yes"/>
      <point x="309" y="66"/>
      <point x="390" y="151"/>
      <point x="419" y="230" type="curve" smooth="yes"/>
      <point x="443" y="298"/>
      <point x="430" y="390"/>
      <point x="343" y="394" type="curve" smooth="yes"/>
      <point x="249" y="398"/>
      <point x="164" y="312"/>
    </contour>
    <contour>
      <point x="453" y="587" type="curve" smooth="yes"/>
      <point x="459" y="611"/>
      <point x="497" y="642"/>
      <point x="522" y="639" type="curve" smooth="yes"/>
      <point x="549" y="636"/>
      <point x="565" y="609"/>
      <point x="559" y="583" type="curve" smooth="yes"/>
      <point x="553" y="559"/>
      <point x="514" y="528"/>
      <point x="489" y="531" type="curve" smooth="yes"/>
      <point x="462" y="534"/>
      <point x="447" y="561"/>
    </contour>
    <contour>
      <point x="265" y="587" type="curve" smooth="yes"/>
      <point x="271" y="611"/>
      <point x="309" y="642"/>
      <point x="334" y="639" type="curve" smooth="yes"/>
      <point x="361" y="636"/>
      <point x="376" y="609"/>
      <point x="370" y="583" type="curve" smooth="yes"/>
      <point x="364" y="559"/>
      <point x="326" y="528"/>
      <point x="301" y="531" type="curve" smooth="yes"/>
      <point x="274" y="534"/>
      <point x="259" y="561"/>
    </contour>
  </outline>
</glyph>
